<svg id="b7798a4d-5163-44df-883c-b45df1683271" data-name="Layer 1" xmlns="http://www.w3.org/2000/svg" width="744" height="539.28592" viewBox="0 0 744 539.28592"><path d="M702.11417,584.643v130H376.41542c-37.109,0-67.30125-29.15983-67.30125-65s30.19221-65,67.30125-65Z" transform="translate(-228 -180.35704)" fill="#f2f2f2"/><path d="M710.11417,713.643a5.002,5.002,0,0,1-5,5h-334.5a68.5,68.5,0,1,1,0-137h334.5a5,5,0,0,1,0,10h-334.5a58.5,58.5,0,1,0,0,117h334.5A5.002,5.002,0,0,1,710.11417,713.643Z" transform="translate(-228 -180.35704)" fill="#6c63ff"/><path d="M702.11417,614.643h-350a1,1,0,1,1,0-2h350a1,1,0,0,1,0,2Z" transform="translate(-228 -180.35704)" fill="#ccc"/><path d="M702.11417,638.643h-350a1,1,0,1,1,0-2h350a1,1,0,0,1,0,2Z" transform="translate(-228 -180.35704)" fill="#ccc"/><path d="M702.11417,662.643h-350a1,1,0,1,1,0-2h350a1,1,0,0,1,0,2Z" transform="translate(-228 -180.35704)" fill="#ccc"/><path d="M702.11417,686.643h-350a1,1,0,1,1,0-2h350a1,1,0,0,1,0,2Z" transform="translate(-228 -180.35704)" fill="#ccc"/><path d="M953.83158,609.11391,872.26685,710.34235,618.65167,505.99212c-28.89608-23.283-34.11066-64.9324-11.62379-92.84043s64.29244-31.671,93.18852-8.388Z" transform="translate(-228 -180.35704)" fill="#f2f2f2"/><path d="M879.12372,714.583a5.002,5.002,0,0,1-7.03051.7563L611.62467,505.467a68.5,68.5,0,0,1,85.95667-106.6792L958.04988,608.66014a5,5,0,1,1-6.27421,7.7868L691.30713,406.57463a58.5,58.5,0,1,0-73.40825,91.10558L878.36742,707.55253A5.002,5.002,0,0,1,879.12372,714.583Z" transform="translate(-228 -180.35704)" fill="#ccc"/><path d="M935.009,632.47432,662.47086,412.877a1,1,0,1,1,1.25485-1.55736L936.26379,630.917a1,1,0,1,1-1.25484,1.55736Z" transform="translate(-228 -180.35704)" fill="#ccc"/><path d="M919.95085,651.16265,647.41276,431.56531a1,1,0,0,1,1.25484-1.55736L921.20569,649.60529a1,1,0,1,1-1.25484,1.55736Z" transform="translate(-228 -180.35704)" fill="#ccc"/><path d="M904.89274,669.851,632.35466,450.25364a1,1,0,0,1,1.25484-1.55737L906.14759,668.29361a1,1,0,1,1-1.25485,1.55736Z" transform="translate(-228 -180.35704)" fill="#ccc"/><path d="M889.83464,688.5393,617.29655,468.942a1,1,0,1,1,1.25485-1.55736L891.08948,686.98194a1,1,0,1,1-1.25484,1.55736Z" transform="translate(-228 -180.35704)" fill="#ccc"/><path d="M634.4877,376.4751" transform="translate(-228 -180.35704)" fill="#ffb8b8"/></svg>