<svg xmlns="http://www.w3.org/2000/svg" xmlns:xlink="http://www.w3.org/1999/xlink" width="852" height="686.667" viewBox="0 0 639 515" xmlns:v="https://vecta.io/nano"><style><![CDATA[.B{fill:rgb(0%,74.901961%,65.098039%)}.C{fill:rgb(24.705882%,23.921569%,33.72549%)}.D{fill:rgb(18.431373%,18.039216%,25.490196%)}.E{fill:rgb(100%,72.156863%,72.156863%)}.F{fill:rgb(80%,80%,80%)}]]></style><g class="C"><use xlink:href="#B"/><path d="M233.16 394.148c-3.504-6.215-2.68-13.652-1.418-20.375 1.316-7.016 3.039-14.141 1.547-21.273a19.54 19.54 0 0 0-4.633-9.309c-1.137-1.234-2.969.609-1.84 1.84 4.406 4.793 4.918 11.742 4.203 17.918-.844 7.281-3.23 14.375-2.934 21.777.078 3.75 1.047 7.434 2.832 10.734a1.3 1.3 0 0 0 1.754.43c.605-.355.82-1.125.488-1.742zm0 0"/></g><path d="M251.965 413.992h-44.16c-2.152 0-3.895-1.746-3.895-3.898v-12.988c.008-6.949 5.629-12.582 12.57-12.59h6.477c.719 0 1.297-.582 1.301-1.301v-6.07c0-1.195.969-2.164 2.164-2.164h6.926c1.195 0 2.164.969 2.164 2.164v6.07a1.3 1.3 0 0 0 1.301 1.301h6.477a12.6 12.6 0 0 1 12.57 12.59v12.988c-.004 2.152-1.746 3.898-3.895 3.898zm0 0" class="F"/><g class="B"><path d="M230.563 336c.93 4.938-.223 9.305-2.57 9.746s-5.008-3.203-5.937-8.141 1.93-13.16 1.93-13.16 5.648 6.613 6.578 11.555zm0 0"/><use xlink:href="#C"/></g><g class="C"><use xlink:href="#B" x="-81.391" y="-312.121"/><path d="M151.77 82.027c-3.504-6.215-2.68-13.652-1.418-20.375 1.316-7.016 3.039-14.141 1.547-21.277-.676-3.461-2.277-6.68-4.633-9.305-1.137-1.234-2.969.609-1.836 1.84 4.406 4.793 4.914 11.742 4.199 17.918-.84 7.281-3.23 14.375-2.934 21.773a23.62 23.62 0 0 0 2.832 10.738c.375.594 1.152.781 1.754.426a1.3 1.3 0 0 0 .488-1.738zm0 0"/></g><path d="M170.574 101.871h-44.16a3.9 3.9 0 0 1-3.895-3.898V84.984c.008-6.949 5.629-12.582 12.57-12.59h6.477c.719 0 1.297-.582 1.301-1.301v-6.07c0-1.195.969-2.164 2.164-2.164h6.926c1.195 0 2.164.969 2.164 2.164v6.07a1.3 1.3 0 0 0 1.301 1.301h6.477a12.6 12.6 0 0 1 12.57 12.59v12.988a3.9 3.9 0 0 1-3.895 3.898zm0 0" class="F"/><g class="B"><path d="M149.172 23.875c.93 4.941-.219 9.309-2.57 9.75s-5.008-3.203-5.937-8.145 1.93-13.156 1.93-13.156 5.648 6.613 6.578 11.551zm0 0"/><use xlink:href="#C" x="-81.391" y="-312.121"/><path d="M27.707 235.824h35.5v13.004h-35.5zm0 42.485h35.5v13.004h-35.5zm0 0"/></g><g class="C"><path d="M279.672 514.133H14.719C6.594 514.125.008 507.531 0 499.395V14.738C.008 6.602 6.594.008 14.719 0h264.953c8.125.008 14.711 6.602 14.719 14.738v484.656c-.008 8.137-6.594 14.73-14.719 14.738zM14.719 1.734C7.551 1.742 1.738 7.559 1.73 14.738v484.656c.008 7.18 5.82 12.996 12.988 13.004h264.953c7.168-.008 12.98-5.824 12.988-13.004V14.738c-.008-7.18-5.82-12.996-12.988-13.004zm0 0"/><path d="M.867 100.098h292.656v1.734H.867zm0 104.066h292.656v1.734H.867zm0 104.07h292.656v1.734H.867zm0 104.067h292.656v1.734H.867zm0 0"/><path d="M60.609 310.387H31.172a4.34 4.34 0 0 1-4.332-4.336v-84.098a4.34 4.34 0 0 1 4.332-4.336h29.438c2.391.004 4.328 1.941 4.328 4.336v84.098c0 2.395-1.937 4.332-4.328 4.336zm-29.437-91.035a2.6 2.6 0 0 0-2.598 2.602v84.098a2.6 2.6 0 0 0 2.598 2.602h29.438a2.6 2.6 0 0 0 2.598-2.602v-84.098a2.6 2.6 0 0 0-2.598-2.602zm0 0"/></g><path d="M82.258 235.824h35.5v13.004h-35.5zm0 42.485h35.5v13.004h-35.5zm0 0" class="B"/><path d="M115.16 310.387H85.719c-2.391-.004-4.324-1.941-4.328-4.336v-84.098c.004-2.395 1.938-4.332 4.328-4.336h29.441a4.34 4.34 0 0 1 4.328 4.336v84.098a4.34 4.34 0 0 1-4.328 4.336zm-29.441-91.035c-1.434 0-2.594 1.164-2.598 2.602v84.098c.004 1.438 1.164 2.602 2.598 2.602h29.441c1.434 0 2.594-1.164 2.598-2.602v-84.098c-.004-1.437-1.164-2.602-2.598-2.602zm0 0" class="C"/><path d="M168.84 130.918h35.5v13.004h-35.5zm0 42.484h35.5v13.004h-35.5zm0 0" class="B"/><path d="M201.742 205.48h-29.437c-2.391-.004-4.328-1.941-4.328-4.336v-84.098c0-2.395 1.938-4.332 4.328-4.336h29.438a4.34 4.34 0 0 1 4.332 4.336v84.098a4.34 4.34 0 0 1-4.332 4.336zm-29.437-91.035a2.6 2.6 0 0 0-2.598 2.602v84.098a2.6 2.6 0 0 0 2.598 2.602h29.438c1.438 0 2.598-1.164 2.598-2.602v-84.098c0-1.437-1.16-2.602-2.598-2.602zm0 0" class="C"/><path d="M223.391 130.918h35.5v13.004h-35.5zm0 42.484h35.5v13.004h-35.5zm0 0" class="B"/><path d="M256.293 205.48h-29.438a4.34 4.34 0 0 1-4.332-4.336v-84.098a4.34 4.34 0 0 1 4.332-4.336h29.438c2.391.004 4.328 1.941 4.328 4.336v84.098c0 2.395-1.937 4.332-4.328 4.336zm-29.438-91.035c-1.437 0-2.598 1.164-2.598 2.602v84.098c0 1.438 1.16 2.602 2.598 2.602h29.438a2.6 2.6 0 0 0 2.598-2.602v-84.098a2.6 2.6 0 0 0-2.598-2.602zm0 0" class="C"/><path d="M128.07 240.563l33.23-12.504 4.566 12.172-33.23 12.504zm14.922 39.769l33.23-12.504 4.57 12.172-33.23 12.504zm0 0" class="B"/><path d="M155.977 309.418a4.33 4.33 0 0 1-4.047-2.812l-29.543-78.723c-.84-2.242.293-4.738 2.527-5.586l27.559-10.367c2.238-.844 4.734.293 5.574 2.535l29.543 78.723a4.34 4.34 0 0 1-2.527 5.582l-27.559 10.371a4.33 4.33 0 0 1-1.527.277zm-1.98-96.031c-.312 0-.621.055-.914.168l-27.559 10.367a2.61 2.61 0 0 0-1.52 3.352l29.547 78.723c.504 1.344 2 2.027 3.344 1.52l27.559-10.367a2.61 2.61 0 0 0 1.516-3.352l-29.543-78.723c-.379-1.016-1.348-1.687-2.43-1.687zm0 0" class="C"/><path d="M8.582 137.391l33.23-12.504 4.566 12.172-33.23 12.504zm14.922 39.765l33.23-12.504 4.57 12.176-33.23 12.504zm0 0" class="B"/><path d="M36.492 206.246c-1.805-.004-3.418-1.125-4.051-2.812L2.898 124.707a4.34 4.34 0 0 1 2.527-5.582l27.559-10.367c2.238-.844 4.734.289 5.574 2.531l29.543 78.727a4.34 4.34 0 0 1-2.527 5.582l-27.559 10.367a4.33 4.33 0 0 1-1.523.281zm-1.984-96.035a2.61 2.61 0 0 0-.914.168L6.035 120.75c-1.34.504-2.02 2.004-1.516 3.348l29.543 78.727c.504 1.344 2 2.023 3.344 1.52l27.559-10.371c1.34-.504 2.02-2.004 1.516-3.348l-29.543-78.727c-.379-1.012-1.348-1.684-2.43-1.687zm0 0" class="C"/><path d="M569.73 189.875c0 14.844-12.016 26.875-26.84 26.875s-26.844-12.031-26.844-26.875 12.02-26.879 26.844-26.879 26.84 12.035 26.84 26.879zm0 0" class="D"/><path d="M423.645 312.531a9.3 9.3 0 0 0 7.852-.531c2.414-1.332 4.109-3.664 4.637-6.367l73.805-46.629-13.434-15.141-68.352 50.625c-4.703-.602-9.109 2.414-10.258 7.016a9.37 9.37 0 0 0 5.75 11.027zm0 0" class="E"/><path d="M494.527 271.402a3.9 3.9 0 0 1-3.281-1.789l-8.547-13.301c-1.121-1.742-.684-4.059.992-5.273l28.602-20.695c3.777-2.734 8.742-3.199 12.957-1.207a12.81 12.81 0 0 1 7.32 10.773 12.82 12.82 0 0 1-5.879 11.625l-30.07 19.254c-.625.402-1.352.613-2.094.613zm0 0" class="D"/><path d="M507.297 503.598h-10.613l-5.051-41 15.668.004zm0 0" class="E"/><path d="M489.102 500.563h20.473v12.906h-33.363a12.9 12.9 0 0 1 12.891-12.906zm0 0" class="D"/><path d="M556.855 495.652l-10.223 2.871-15.93-38.105 15.086-4.238zm0 0" class="E"/><path d="M538.516 497.652l19.711-5.539 3.48 12.426-32.117 9.027c-1.926-6.863 2.07-13.988 8.926-15.914zm0 0" class="D"/><path d="M585.457 432.734l-41.211-48.703 25.004-30.383c.742-.902 1.852-1.422 3.02-1.418a3.89 3.89 0 0 1 3.008 1.438l37.84 46.5zm0 0" class="B"/><path d="M545.906 384.395c.609-1.094 1.363-2.102 2.238-2.992l23.871-24.23c.934-.957 2.195-1.523 3.527-1.59 2.73-.129 7.203.148 8.449 3.145l-32.227 26.402zm0 0" fill="rgb(94.901961%,94.901961%,94.901961%)"/><path d="M586.887 443.039c-1.836-.055-3.625-.621-5.156-1.637l-.117-.117-37.742-57.805 6.262-.605 33.566-26.215c.859-.672 1.953-.949 3.027-.773a3.89 3.89 0 0 1 2.621 1.699l36.691 55.605a3.92 3.92 0 0 1-1.07 5.387l-35.508 23.973a6.9 6.9 0 0 1-2.574.488zm0 0" class="B"/><path d="M573.539 403.496c-.723.004-1.395-.355-1.801-.953l-4.336-6.449c-.664-.996-.402-2.34.59-3.012l22.242-14.992c.992-.668 2.336-.406 3.004.586l4.336 6.449a2.17 2.17 0 0 1-.586 3.008l-22.242 14.996a2.15 2.15 0 0 1-1.207.367zm0 0" class="C"/><path d="M489.953 497.398c-2.453-.008-4.496-1.891-4.707-4.34l-12.406-151.66c-1.156-24.301 19.043-62.746 19.246-63.133l.141-.262 9.98 1.246v1.164l9.504 1.117 18.391 1.785 5.262 64.434 2.328 43.699 21.871 89.25a3.88 3.88 0 0 1-2.758 4.695l-19.035 5.199a3.92 3.92 0 0 1-4.773-2.695l-17.922-63.039a1.3 1.3 0 0 0-1.445-.93c-.648.102-1.121.672-1.102 1.324l1.898 61.469a4.63 4.63 0 0 1-1.402 3.391c-4.363 4.105-15.891 6.293-22.375 7.234a4.59 4.59 0 0 1-.695.051zm0 0" class="D"/><path d="M547.148 226.629c-3.02-3.152-22.922 1.18-27.34 5.824l-30.25 49.512 50.027 9.32 11.055-62.91zm0 0" class="B"/><path d="M534.035 352.418a9.69 9.69 0 0 1-3.164-.527c-2.906-1-6.469-2.043-10.59-3.102-18.039-4.645-24.406-19.516-18.93-44.203l.141-.625a182.88 182.88 0 0 1 28.535-65.254l2.121-3.051a22.84 22.84 0 0 1 23.418-9.324c8.117 1.676 12.473 4.105 12.953 7.219.938 6.113-17.191 80-25.031 111.48-1.078 4.348-4.98 7.395-9.453 7.387zm-62.14-9.484a4.65 4.65 0 0 1-1.391-.215l-5.848-1.875c-1.223-.391-2.223-1.281-2.758-2.449a4.58 4.58 0 0 1-.047-3.691l31.023-72.918a68.22 68.22 0 0 1 29.547-32.797c.387-.211.844-.254 1.266-.117.387.125.703.402.871.773 3.648 8.039-16.211 46.074-32.168 76.641-8.172 15.648-15.23 29.164-16.031 33.02a4.57 4.57 0 0 1-4.465 3.629zm0 0" class="D"/><path d="M567.879 359.551a9.32 9.32 0 0 0 3.723-6.945c.152-2.75-.918-5.43-2.926-7.316l-.246-87.379-19.949 3.352 6.523 84.883a9.37 9.37 0 0 0 .492 12.426c3.281 3.422 8.602 3.84 12.383.98zm0 0" class="E"/><path d="M551.633 279.59a3.9 3.9 0 0 1-3.883-3.645l-2.324-35.258c-.453-7.062 4.883-13.164 11.938-13.641 3.516-.23 6.969.996 9.551 3.398a12.83 12.83 0 0 1 4.094 9.285l.316 35.734c.016 2.152-1.703 3.91-3.852 3.938l-15.789.188zm0 0" class="D"/><path d="M558.629 196.824c0 11.762-9.523 21.293-21.27 21.293s-21.266-9.531-21.266-21.293 9.523-21.297 21.266-21.297 21.27 9.535 21.27 21.297zm0 0" class="E"/><path d="M555.043 211.723c1.586-5.055 3.043-11.012-.098-15.277-2.262-3.074-6.32-4.262-10.129-4.434s-7.629.477-11.43.176-7.816-1.805-9.746-5.098c-2.504-4.27-.383-10.148 3.641-13.023s9.34-3.273 14.238-2.605a30.72 30.72 0 0 1 16.703 7.48c4.555 4.211 7.523 10.273 7.391 16.477s-3.605 12.379-9.145 15.164m-6.726-45.388c-5.094-1.57-7.441-8.312-5.164-13.133s8.098-7.348 13.383-6.676 9.938 4.066 13.152 8.32 5.148 9.328 6.762 14.41 2.957 10.277 5.164 15.133c7.125 15.184 21.793 25.41 38.488 26.828 3.574.258 7.285.074 10.543-1.422s5.992-4.516 6.355-8.086c1.855 12.684-5.516 26.164-17.184 31.434s-26.637 1.879-34.906-7.906c-8.078-9.562-9.328-23.066-9.137-35.594.055-3.434.18-6.934-.766-10.234s-3.191-6.441-6.457-7.488c-2.637-.848-5.492-.238-8.195.363s-5.57 1.176-8.187.273-4.723-3.883-3.668-6.449" class="D"/><path d="M633.875 515H405.293c-.48 0-.867-.387-.867-.867s.387-.867.867-.867h228.582c.48 0 .867.387.867.867s-.387.867-.867.867zm0 0" class="F"/><defs ><path id="B" d="M232.418 390.648c-3.996-9.586-.414-20.66 8.438-26.082 1.426-.871.121-3.121-1.312-2.246-10.168 6.078-14.191 18.813-9.367 29.641.656 1.535 2.895.211 2.242-1.312zm0 0"/><path id="C" d="M248.395 358.984c-2.945 4.074-6.902 6.234-8.84 4.832s-1.117-5.844 1.824-9.914 10.871-7.645 10.871-7.645-.91 8.652-3.855 12.727zm0 0"/></defs></svg>