<svg xmlns="http://www.w3.org/2000/svg" width="512" height="512" viewBox="0 0 58 58"  xmlns:v="https://vecta.io/nano"><path d="M5.72 52.21L.17 20.7a7 7 0 0 1-.1-.92 7.16 7.16 0 0 1 6.01-7.23l10.71-1.89-.29 41.55z" fill="#5a50a0"/><path d="M46.94 50.83a2 2 0 0 1-1.59 1.5l-31.52 5.56a7.01 7.01 0 0 1-8.21-6.6 7.14 7.14 0 0 1 5.61-7.14l8.83 2.48-7.96 1.41c-.887.156-1.657.701-2.098 1.485s-.508 1.726-.182 2.565a3.09 3.09 0 0 0 3.44 1.84l24.09-4.25z" fill="#2c3e50"/><path d="M20.05 46.63l-7.95 1.41c-.887.156-1.657.701-2.098 1.485s-.508 1.726-.182 2.565a3.09 3.09 0 0 0 3.44 1.84l24.09-4.25z" fill="#f9eab0"/><path d="M12.826 33.171l5.557-31.514C18.582.574 19.614-.149 20.7.035L51.977 5.55c3.53.572 6.097 3.66 6.015 7.235a7.15 7.15 0 0 1-.1.916l-5.557 31.514z" fill="#1cd4bbf5"/><path d="M45.438 10.474c-.059 0-.117-.005-.175-.015L22.612 6.465A1 1 0 0 1 22.96 4.5l22.65 3.989a1 1 0 0 1-.172 1.985zM40.63 14.7a.95.95 0 0 1-.175-.016l-14.772-2.601a1 1 0 0 1 .347-1.969l14.773 2.6a1 1 0 0 1-.173 1.986z" fill="#2c3e50"/><rect fill="#ecf0f1" height="12" rx="1" transform="matrix(.985 .174 -.174 .985 4.511 -5.088)" width="23" x="19.833" y="17.234"/><path d="M57.99 12.78c-.012.309-.045.616-.1.92l-5.56 31.51-7.71-2.35 6.61-37.44.75.13c3.526.575 6.089 3.659 6.01 7.23z" fill="#1cd4bbf5"/><path d="M46.42 37.06l-31.28-5.51a2.07 2.07 0 0 0-.35-.03 2 2 0 0 0-.34 3.97l31.51 5.55c.886.16 1.654.709 2.093 1.494s.504 1.727.177 2.566a3.07 3.07 0 0 1-3.43 1.83L13.41 41.4a2.07 2.07 0 0 0-.35-.03 2 2 0 0 0-.35 3.97l31.52 5.55c1.985.348 4.024-.176 5.596-1.437s2.524-3.139 2.614-5.153c.078-3.577-2.489-6.665-6.02-7.24z" fill="#2c3e50"/><path d="M48.23 45.1a3.07 3.07 0 0 1-3.43 1.83L13.41 41.4l1.04-5.91 31.51 5.55c.886.16 1.654.709 2.093 1.494s.504 1.727.177 2.566z" fill="#f9eab0"/></svg>