<svg xmlns="http://www.w3.org/2000/svg" width="1022.667" height="710.667" viewBox="0 0 767 533"  xmlns:v="https://vecta.io/nano"><style><![CDATA[.B{fill:rgb(24.705882%,23.921569%,33.72549%)}.C{fill:rgb(18.431373%,18.039216%,25.490196%)}.D{fill:rgb(0%,74.901961%,65.098039%)}.E{fill:rgb(94.901961%,94.901961%,94.901961%)}.F{fill:rgb(100%,100%,100%)}]]></style><path d="M189.246 70.563c0 24.219-19.605 43.848-43.789 43.848s-43.789-19.629-43.789-43.848 19.605-43.844 43.789-43.844 43.789 19.629 43.789 43.844zm0 0" fill="rgb(100%,39.607843%,51.764706%)"/><path d="M358.512 235.07c0 103.457-61.426 139.578-137.195 139.578S84.121 338.527 84.121 235.07 221.316 0 221.316 0s137.195 131.613 137.195 235.07zm0 0" class="E"/><path d="M216.316 358.824l1.406-86.586 58.477-107.113-58.258 93.531.633-38.93 40.301-77.5-40.133 67.195 1.137-70.02 43.152-61.699-42.977 50.688L220.766 0l-4.461 169.969.367-7.012-43.875-67.246 43.172 80.707-4.09 78.199-.121-2.074-50.582-70.77 50.43 78.102-.512 9.777-.09.148.039.805-10.371 198.398h13.859l1.66-102.477 50.305-77.91zm0 0" class="B"/><path d="M766.723 277.441c0 84.684-50.281 114.254-112.301 114.254s-112.301-29.57-112.301-114.254S654.422 85.027 654.422 85.027s112.301 107.73 112.301 192.414zm0 0" class="E"/><g class="B"><path d="M650.328 378.742l1.152-70.875 47.863-87.68-47.684 76.563.516-31.867 32.988-63.437-32.852 55.004.93-57.316 35.324-50.5-35.176 41.488.582-105.094-3.652 139.125.301-5.738-35.918-55.043 35.34 66.063-3.344 64.008-.102-1.699-41.402-57.926 41.277 63.93-.418 8.004-.074.121.031.656-8.488 162.402h11.344l1.359-83.883 41.18-63.773zm0 0"/><path d="M758.914 466.188c0-10.605-169.887-19.203-379.457-19.203S0 455.582 0 466.188s169.891 19.207 379.457 19.207 379.457-8.598 379.457-19.207zm-83.301 31.734c0-1.816-29.098-3.289-64.992-3.289s-64.992 1.473-64.992 3.289 29.098 3.289 64.992 3.289 64.992-1.473 64.992-3.289zm-235.179 31.73c0-1.816-29.102-3.289-64.992-3.289s-64.992 1.473-64.992 3.289 29.098 3.289 64.992 3.289 64.992-1.473 64.992-3.289zm-94.938-26.605c0-4.152-66.477-7.516-148.48-7.516s-148.484 3.363-148.484 7.516 66.477 7.516 148.484 7.516 148.48-3.363 148.48-7.516zm0 0"/></g><g class="C"><path d="M120.477 387.945c0 29.891-24.199 54.121-54.051 54.121s-54.051-24.23-54.051-54.121 24.199-54.121 54.051-54.121 54.051 24.23 54.051 54.121zm0 0"/><path d="M41.297 430.129l16.418.191-.344 29.457-16.422-.191zm32.84.387l16.418.195-.344 29.453-16.422-.191zm0 0"/><path d="M54.688 454.949c-7.555-.086-13.707 2.141-13.742 4.977s6.066 5.211 13.621 5.301 13.711-2.141 13.746-4.977-6.066-5.211-13.625-5.301zm32.847-.297c-7.555-.09-13.707 2.141-13.742 4.977s6.066 5.211 13.625 5.301 13.707-2.141 13.742-4.977-6.066-5.211-13.625-5.301zm0 0"/></g><path d="M86.43 374.262c0 10.215-8.273 18.496-18.473 18.496s-18.477-8.281-18.477-18.496 8.273-18.5 18.477-18.5 18.473 8.285 18.473 18.5zm0 0" class="F"/><path d="M74.113 374.262a6.16 6.16 0 0 1-6.156 6.164c-3.402 0-6.16-2.758-6.16-6.164s2.758-6.168 6.16-6.168 6.156 2.762 6.156 6.168zm0 0" class="B"/><path d="M14.59 337c-4.137-19.621 10.047-39.234 31.68-43.801s42.516 7.633 46.648 27.254-10.25 26.672-31.879 31.238S18.723 356.621 14.59 337zm134.289 81.141c0 37.73-22.402 50.906-50.035 50.906a81.51 81.51 0 0 1-1.918-.023 80.5 80.5 0 0 1-3.801-.172c-24.941-1.77-44.32-15.621-44.32-50.711 0-36.316 46.348-82.141 49.832-85.531l.004-.008.203-.195s50.035 48 50.035 85.734zm0 0" class="D"/><path d="M97.02 463.273l18.301-25.605-18.348 28.418-.047 2.938-3.801-.172 2.176-41.664-18.395-28.488 18.453 25.813.043.758 1.488-28.523-15.746-29.434 15.938 24.43 1.559-59.336v.195l-.258 46.629 15.676-18.484-15.742 22.504-.414 25.535 14.637-24.508-14.695 28.266-.234 14.199 21.25-34.113-21.328 39.066zm0 0" class="B"/><g class="C"><path d="M541.543 387.359c0 29.891-24.199 54.125-54.055 54.125s-54.051-24.234-54.051-54.125 24.199-54.121 54.051-54.121 54.055 24.23 54.055 54.121zm0 0"/><path d="M476.406 435.207l15.695-4.832 8.645 28.16-15.695 4.832zm31.395-9.656l15.695-4.832 8.641 28.16-15.695 4.832zm0 0"/><path d="M511.313 455.645c-.836-2.715-7.367-3.109-14.59-.887s-12.406 6.223-11.574 8.938 7.367 3.109 14.59.883 12.406-6.223 11.574-8.934zm31.191-10.317c-.832-2.711-7.363-3.109-14.59-.887s-12.406 6.223-11.57 8.938 7.363 3.109 14.586.887 12.406-6.227 11.574-8.937zm0 0"/></g><path d="M503.25 373.859c0 10.219-8.27 18.5-18.473 18.5s-18.473-8.281-18.473-18.5 8.27-18.496 18.473-18.496 18.473 8.281 18.473 18.496zm0 0" class="F"/><path d="M490.938 373.859c0 3.406-2.758 6.168-6.16 6.168s-6.156-2.762-6.156-6.168 2.758-6.164 6.156-6.164 6.16 2.762 6.16 6.164zm0 0" class="B"/><path d="M422.605 354.672c-9.914-17.426-2.383-40.43 16.824-51.387s42.816-5.715 52.73 11.707-1.637 28.531-20.844 39.488-38.801 17.617-48.711.191zM391.09 411.23c0 34.637-20.562 46.73-45.93 46.73-.59 0-1.176-.008-1.762-.02a78.2 78.2 0 0 1-3.488-.16c-22.895-1.625-40.684-14.34-40.684-46.551 0-33.336 42.547-75.402 45.742-78.516l.004-.004.188-.18s45.93 44.063 45.93 78.699zm0 0" class="D"/><path d="M343.484 452.66l16.801-23.504-16.844 26.086-.043 2.699-3.488-.16 1.996-38.246-16.883-26.148 16.938 23.695.039.695 1.367-26.184-14.453-27.02 14.629 22.422 1.43-54.465v.18l-.238 42.805 14.391-16.969-14.449 20.656-.379 23.441 13.434-22.496-13.488 25.945-.215 13.031 19.504-31.312-19.578 35.859zm0 0" class="B"/><path d="M571.723 425.676c0 37.73-22.402 50.906-50.039 50.906-.641 0-1.277-.008-1.918-.023a80.98 80.98 0 0 1-3.801-.172c-24.941-1.77-44.316-15.621-44.316-50.711 0-36.316 46.348-82.141 49.828-85.531l.008-.008.199-.195s50.039 48 50.039 85.734zm0 0" class="D"/><path d="M519.863 470.809l18.301-25.602-18.348 28.414-.051 2.938-3.801-.172 2.176-41.664-18.391-28.484 18.449 25.809.043.758 1.492-28.52-15.746-29.437 15.938 24.43 1.559-59.336v.195l-.262 46.633 15.676-18.488-15.738 22.504-.414 25.539 14.637-24.512-14.699 28.266-.23 14.199 21.25-34.113-21.328 39.066zm0 0" class="B"/><path d="M470.141 400.488c-13.488-6.406-26.047-8.16-28.055-3.922s7.297 12.867 20.781 19.273 26.047 8.16 28.055 3.918-7.297-12.867-20.781-19.27zm-417.164-3.636c-13.855-5.559-26.5-6.535-28.242-2.184s8.074 12.395 21.93 17.953 26.5 6.539 28.242 2.184-8.074-12.391-21.93-17.953zm0 0" class="C"/></svg>