<svg xmlns="http://www.w3.org/2000/svg" xmlns:xlink="http://www.w3.org/1999/xlink" width="838.667" height="666.667" viewBox="0 0 629 500" xmlns:v="https://vecta.io/nano"><style><![CDATA[.B{stroke:none}.C{fill:rgb(0%,0%,0%)}.D{filter:url(#A)}.E{fill-opacity:1}.F{fill-rule:nonzero}.G{fill-opacity:.102}.H{fill:rgb(0%,74.901961%,65.098039%)}.I{fill:rgb(74.509804%,43.529412%,44.705882%)}.J{fill:rgb(90.588235%,78.039216%,79.215686%)}.K{fill:rgb(100%,100%,100%)}.L{fill:rgb(83.529412%,83.921569%,85.882353%)}.M{fill:rgb(29.411765%,29.411765%,35.686275%)}.N{fill-opacity:.302}.O{stroke-width:1}.P{stroke-linecap:butt}.Q{stroke-linejoin:miter}.R{stroke:rgb(0%,0%,0%)}.S{stroke-opacity:1}.T{stroke-miterlimit:10}.U{fill:rgb(22.745098%,21.568627%,40.784314%)}.V{fill:rgb(24.313725%,21.568627%,22.745098%)}.W{fill:rgb(100%,81.568627%,21.568627%)}]]></style><defs><filter id="A" x="0%" y="0%" width="100%" height="100%"><feColorMatrix in="SourceGraphic" values="0 0 0 0 1 0 0 0 0 1 0 0 0 0 1 0 0 0 1 0"/></filter><mask id="B"><g class="D"><path d="M0 0h629v500H0z" class="B C G"/></g></mask><clipPath id="C"><path d="M0 0h629v500H0z"/></clipPath><g id="D" clip-path="url(#C)"><path d="M368.828 84.516c-39.793-1.387-77.699-14.234-113.891-28.293s-72.035-29.637-110.875-37.082c-24.984-4.793-53.555-5.469-73.68 7.926C51.008 39.98 44.75 62.215 41.387 82.867c-2.535 15.535-4.023 31.879 2.922 46.426 4.813 10.098 13.363 18.586 19.273 28.289 20.578 33.652 6.039 75.156-16.262 108.016-10.453 15.418-22.598 30.133-30.664 46.531s-11.805 35.207-4.746 51.949c7.004 16.605 23.684 29.051 41.75 37.816 36.699 17.805 79.93 22.895 122.117 25.781 93.352 6.391 187.199 3.621 280.797.855 34.641-1.027 69.43-2.066 103.508-7.426 18.926-2.977 38.457-7.691 52.199-19.094 17.438-14.473 21.762-38.98 10.078-57.121-19.609-30.437-73.781-37.996-87.508-70.664-7.535-17.977.211-38.004 11.168-54.684 23.512-35.766 62.918-67.152 64.996-108.035 1.426-28.09-17.523-56.207-46.816-69.496-30.699-13.98-73.285-12.207-95.922 10.848-23.328 23.758-64.316 32.871-99.449 31.656zm0 0" class="B E F H"/></g><mask id="E"><g class="D"><path d="M0 0h629v500H0z" class="B C G"/></g></mask><clipPath id="F"><path d="M0 0h629v500H0z"/></clipPath><g id="G" clip-path="url(#F)"><path d="M36.375 374.57s-14.406 27.301 2.195 52.516l228.418 49.508s-14.176-21.746.734-51.934zm0 0" class="B C E F"/></g><mask id="H"><g class="D"><path d="M0 0h629v500H0z" class="B C G"/></g></mask><clipPath id="I"><path d="M0 0h629v500H0z"/></clipPath><g id="J" clip-path="url(#I)"><path d="M43.18 384.035s-8.23 19.977 0 32.902" class="B C E F"/></g><mask id="K"><g class="D"><path d="M0 0h629v500H0z" class="B C G"/></g></mask><clipPath id="L"><path d="M0 0h629v500H0z"/></clipPath><g id="M" clip-path="url(#L)"><path d="M266.988 476.594l127.523-54.43s7.133 1.539 2.52 6.766-127.582 52.891-127.582 52.891L38.57 427.086zm0 0" class="B C E F"/></g><mask id="N"><g class="D"><path d="M0 0h629v500H0z" class="B C G"/></g></mask><clipPath id="O"><path d="M0 0h629v500H0z"/></clipPath><g id="P" clip-path="url(#O)"><path d="M256.539 430.16s-12.301 14.762 0 36.898" class="B C E F"/></g><mask id="Q"><g class="D"><path d="M0 0h629v500H0z" class="B C G"/></g></mask><clipPath id="R"><path d="M0 0h629v500H0z"/></clipPath><g id="S" clip-path="url(#R)"><path d="M260.914 448.316l55.16-18.406.191.582-55.156 18.406zm0 0" class="B C E F"/></g><mask id="T"><g class="D"><path d="M0 0h629v500H0z" class="B C G"/></g></mask><clipPath id="U"><path d="M0 0h629v500H0z"/></clipPath><g id="V" clip-path="url(#U)"><path d="M260.898 453.266l66.223-25.187.219.574-66.227 25.191zm0 0" class="B C E F"/></g><mask id="W"><g class="D"><path d="M0 0h629v500H0z" class="B C G"/></g></mask><clipPath id="X"><path d="M0 0h629v500H0z"/></clipPath><g id="Y" clip-path="url(#X)"><path d="M261.266 459.105l76-31.113.234.566-76 31.117zm0 0" class="B C E F"/></g><mask id="Z"><g class="D"><path d="M0 0h629v500H0z" class="B C G"/></g></mask><clipPath id="a"><path d="M0 0h629v500H0z"/></clipPath><g id="b" clip-path="url(#a)"><path d="M262.152 464.25l86.148-38.926.254.563-86.148 38.922zm0 0" class="B C E F"/></g><mask id="c"><g class="D"><path d="M0 0h629v500H0z" class="B C G"/></g></mask><clipPath id="d"><path d="M0 0h629v500H0z"/></clipPath><g id="e" clip-path="url(#d)"><path d="M262.836 466.758l94.734-41.418.246.563-94.734 41.418zm0 0" class="B C E F"/></g><mask id="f"><g class="D"><path d="M0 0h629v500H0z" class="B C G"/></g></mask><clipPath id="g"><path d="M0 0h629v500H0z"/></clipPath><g id="h" clip-path="url(#g)"><path d="M264.266 470.961l113.578-49.066.246.566-113.582 49.066zm0 0" class="B C E F"/></g><mask id="i"><g class="D"><path d="M0 0h629v500H0z" class="B C N"/></g></mask><clipPath id="j"><path d="M0 0h629v500H0z"/></clipPath><g id="k" clip-path="url(#j)"><path d="M93.602 377.578l108.215-22.758 65.922 12.609-88.672 28.598zm0 0" class="B E F K"/></g><mask id="l"><g class="D"><path d="M0 0h629v500H0z" class="B C G"/></g></mask><clipPath id="m"><path d="M0 0h629v500H0z"/></clipPath><g id="n" clip-path="url(#m)"><path d="M97.406 315.418s-14.414 27.301 2.188 52.516l228.422 49.508s-14.172-21.766.754-51.937l-72.23-15.641zm0 0" class="B C E F"/></g><mask id="o"><g class="D"><path d="M0 0h629v500H0z" class="B C G"/></g></mask><clipPath id="p"><path d="M0 0h629v500H0z"/></clipPath><g id="q" clip-path="url(#p)"><path d="M104.23 324.883s-8.227 19.969 0 32.902" class="B C E F"/></g><mask id="r"><g class="D"><path d="M0 0h629v500H0z" class="B C G"/></g></mask><clipPath id="s"><path d="M0 0h629v500H0z"/></clipPath><g id="t" clip-path="url(#s)"><path d="M328.039 417.441l127.527-54.43s7.125 1.539 2.516 6.766S330.5 422.668 330.5 422.668L99.621 367.934zm0 0" class="B C E F"/></g><mask id="u"><g class="D"><path d="M0 0h629v500H0z" class="B C G"/></g></mask><clipPath id="v"><path d="M0 0h629v500H0z"/></clipPath><g id="w" clip-path="url(#v)"><path d="M317.586 371.008s-12.297 14.762 0 36.902" class="B C E F"/></g><mask id="x"><g class="D"><path d="M0 0h629v500H0z" class="B C G"/></g></mask><clipPath id="y"><path d="M0 0h629v500H0z"/></clipPath><g id="z" clip-path="url(#y)"><path d="M321.969 389.172l55.156-18.406.195.582-55.156 18.406zm0 0" class="B C E F"/></g><mask id="AA"><g class="D"><path d="M0 0h629v500H0z" class="B C G"/></g></mask><clipPath id="AB"><path d="M0 0h629v500H0z"/></clipPath><g id="AC" clip-path="url(#AB)"><path d="M321.957 394.121l66.227-25.191.219.574-66.227 25.191zm0 0" class="B C E F"/></g><mask id="AD"><g class="D"><path d="M0 0h629v500H0z" class="B C G"/></g></mask><clipPath id="AE"><path d="M0 0h629v500H0z"/></clipPath><g id="AF" clip-path="url(#AE)"><path d="M322.32 399.949l76-31.113.23.566-76 31.117zm0 0" class="B C E F"/></g><mask id="AG"><g class="D"><path d="M0 0h629v500H0z" class="B C G"/></g></mask><clipPath id="AH"><path d="M0 0h629v500H0z"/></clipPath><g id="AI" clip-path="url(#AH)"><path d="M323.215 405.094l86.145-38.922.254.559-86.148 38.926zm0 0" class="B C E F"/></g><mask id="AJ"><g class="D"><path d="M0 0h629v500H0z" class="B C G"/></g></mask><clipPath id="AK"><path d="M0 0h629v500H0z"/></clipPath><g id="AL" clip-path="url(#AK)"><path d="M323.887 407.594l94.734-41.418.246.563-94.734 41.418zm0 0" class="B C E F"/></g><mask id="AM"><g class="D"><path d="M0 0h629v500H0z" class="B C G"/></g></mask><clipPath id="AN"><path d="M0 0h629v500H0z"/></clipPath><g id="AO" clip-path="url(#AN)"><path d="M325.32 411.801l113.578-49.07.246.566-113.582 49.066zm0 0" class="B C E F"/></g><mask id="AP"><g class="D"><path d="M0 0h629v500H0z" fill-opacity=".451" class="B C"/></g></mask><clipPath id="AQ"><path d="M0 0h629v500H0z"/></clipPath><g id="AR" clip-path="url(#AQ)"><path d="M154.656 318.426l108.215-22.754 65.926 12.605-88.676 28.598zm0 0" class="B E F K"/></g><mask id="AS"><g class="D"><path d="M0 0h629v500H0z" class="B C G"/></g></mask><clipPath id="AT"><path d="M0 0h629v500H0z"/></clipPath><g id="AU" clip-path="url(#AT)"><path d="M103.23 247.75s-14.434 27.301 2.168 52.516l228.422 49.508s-14.18-21.766.75-51.934zm0 0" class="B C E F"/></g><mask id="AV"><g class="D"><path d="M0 0h629v500H0z" class="B C G"/></g></mask><clipPath id="AW"><path d="M0 0h629v500H0z"/></clipPath><g id="AX" clip-path="url(#AW)"><path d="M110.035 257.215s-8.234 19.973 0 32.902" class="B C E F"/></g><mask id="AY"><g class="D"><path d="M0 0h629v500H0z" class="B C G"/></g></mask><clipPath id="AZ"><path d="M0 0h629v500H0z"/></clipPath><g id="Aa" clip-path="url(#AZ)"><path d="M333.844 349.773l127.52-40.898s7.133 1.535 2.523 6.766S336.305 355 336.305 355l-230.883-54.734zm0 0" class="B C E F"/></g><mask id="Ab"><g class="D"><path d="M0 0h629v500H0z" class="B C G"/></g></mask><clipPath id="Ac"><path d="M0 0h629v500H0z"/></clipPath><g id="Ad" clip-path="url(#Ac)"><path d="M323.391 303.34s-12.297 14.762 0 36.898" class="B C E F"/></g><mask id="Ae"><g class="D"><path d="M0 0h629v500H0z" class="B C G"/></g></mask><clipPath id="Af"><path d="M0 0h629v500H0z"/></clipPath><g id="Ag" clip-path="url(#Af)"><path d="M327.773 321.5l55.16-18.406.195.586-55.16 18.406zm0 0" class="B C E F"/></g><mask id="Ah"><g class="D"><path d="M0 0h629v500H0z" class="B C G"/></g></mask><clipPath id="Ai"><path d="M0 0h629v500H0z"/></clipPath><g id="Aj" clip-path="url(#Ai)"><path d="M327.762 326.453l66.223-25.187.219.574-66.223 25.188zm0 0" class="B C E F"/></g><mask id="Ak"><g class="D"><path d="M0 0h629v500H0z" class="B C G"/></g></mask><clipPath id="Al"><path d="M0 0h629v500H0z"/></clipPath><g id="Am" clip-path="url(#Al)"><path d="M328.113 332.285l76.004-31.117.23.57-76 31.117zm0 0" class="B C E F"/></g><mask id="An"><g class="D"><path d="M0 0h629v500H0z" class="B C G"/></g></mask><clipPath id="Ao"><path d="M0 0h629v500H0z"/></clipPath><g id="Ap" clip-path="url(#Ao)"><path d="M329.02 337.426l86.145-38.926.254.563-86.148 38.922zm0 0" class="B C E F"/></g><mask id="Aq"><g class="D"><path d="M0 0h629v500H0z" class="B C G"/></g></mask><clipPath id="Ar"><path d="M0 0h629v500H0z"/></clipPath><g id="As" clip-path="url(#Ar)"><path d="M329.695 339.93l94.734-41.418.246.563-94.734 41.418zm0 0" class="B C E F"/></g><mask id="At"><g class="D"><path d="M0 0h629v500H0z" class="B C G"/></g></mask><clipPath id="Au"><path d="M0 0h629v500H0z"/></clipPath><g id="Av" clip-path="url(#Au)"><path d="M331.125 344.141l113.582-49.07.242.566-113.582 49.066zm0 0" class="B C E F"/></g><mask id="Aw"><g class="D"><path d="M0 0h629v500H0z" class="B C N"/></g></mask><clipPath id="Ax"><path d="M0 0h629v500H0z"/></clipPath><g id="Ay" clip-path="url(#Ax)"><path d="M160.453 250.758L268.668 228l65.926 12.609-88.676 28.598zm0 0" class="B E F K"/></g><mask id="Az"><g class="D"><path d="M0 0h629v500H0z" class="B C G"/></g></mask><clipPath id="BA"><path d="M0 0h629v500H0z"/></clipPath><g id="BB" clip-path="url(#BA)"><path d="M519.566 132.891s-23.363-1.41-20.633 14.988c0 0-.547 2.895 2.078 4.211 0 0 .043-1.23 2.398-.805.84.141 1.695.184 2.543.125a5.3 5.3 0 0 0 3.074-1.281s6.582-2.719 9.133-13.469c0 0 1.895-2.344 1.844-2.945l-3.945 1.684s1.344 2.848.285 5.215c0 0-.129-5.109-.883-4.992-.156 0-2.055.988-2.055.988s2.32 4.965.57 8.57c0 0 .664-6.113-1.297-8.211l-2.777 1.621s2.711 5.125.871 9.309c0 0 .477-6.418-1.457-8.914l-2.512 1.969s2.543 5.051.988 8.52c0 0-.203-7.469-1.539-8.035 0 0-2.199 1.945-2.539 2.746 0 0 1.746 3.688.664 5.602 0 0-.664-4.977-1.227-5 0 0-2.195 3.297-2.426 5.535.109-2.09.762-4.113 1.895-5.867a6.62 6.62 0 0 0-3.363 1.738s.344-2.328 3.906-2.531c0 0 1.813-2.504 2.297-2.656 0 0-3.539-.297-5.691.656 0 0 1.895-2.195 6.34-1.23l2.457-2.027s-4.664-.617-6.641.066c0 0 2.277-1.945 7.313-.527l2.703-1.621s-3.977-.852-6.344-.547c0 0 2.496-1.344 7.141.113l1.934-.867s-2.914-.574-3.77-.664-.895-.328-.895-.328a10.09 10.09 0 0 1 5.473.617s4.16-1.496 4.086-1.754zm0 0" class="B E F H"/></g><mask id="BC"><g class="D"><path d="M0 0h629v500H0z" class="B C G"/></g></mask><clipPath id="BD"><path d="M0 0h629v500H0z"/></clipPath><g id="BE" clip-path="url(#BD)"><path d="M230.215 166.789s-10.184-21.113-23.145-10.707c0 0-2.797.934-2.66 3.867 0 0 1.074-.559 1.844 1.707a11.03 11.03 0 0 0 1.133 2.273c.629.965 1.555 1.699 2.637 2.09 0 0 5.578 4.418 16.207 1.402 0 0 2.969.512 3.457.156l-3.395-2.629s-1.844 2.566-4.414 2.793c0 0 4.402-2.602 3.93-3.203-.102-.125-1.848-1.309-1.848-1.309s-3.203 4.445-7.199 4.672c0 0 5.656-2.398 6.531-5.137l-2.77-1.633s-3.152 4.871-7.695 5.301c0 0 5.828-2.711 7.063-5.617l-2.937-1.227s-3.168 4.684-6.953 5.023c0 0 6.418-3.82 6.258-5.266 0 0-2.773-.973-3.633-.879 0 0-2.352 3.316-4.562 3.316 0 0 4.016-3.008 3.77-3.496 0 0-3.949-.305-6.027.617 1.875-.934 3.957-1.355 6.043-1.23-.828-.988-1.926-1.711-3.16-2.086 0 0 2.203-.836 4.113 2.172 0 0 3.074.363 3.438.715 0 0-1.469-3.238-3.344-4.645 0 0 2.84.57 4.137 4.918l2.984 1.184s-1.715-4.379-3.297-5.766c0 0 2.805 1.043 4.027 6.152l2.73 1.574s-1.187-3.895-2.613-5.805c0 0 2.391 1.523 3.383 6.285l1.703 1.266-1.23-3.609c-.309-.789-.152-.949-.152-.949a10.09 10.09 0 0 1 2.137 5.074s3.289 2.816 3.512 2.633zm0 0" class="B E F H"/></g><mask id="BF"><g class="D"><path d="M0 0h629v500H0z" class="B C G"/></g></mask><clipPath id="BG"><path d="M0 0h629v500H0z"/></clipPath><g id="BH" clip-path="url(#BG)"><path d="M466.184 103.063s-10.176-21.113-23.141-10.707c0 0-2.793.934-2.664 3.867 0 0 1.082-.551 1.844 1.703a10.86 10.86 0 0 0 1.141 2.285c.625.961 1.551 1.691 2.629 2.082 0 0 5.586 4.418 16.211 1.41 0 0 2.969.504 3.461.148l-3.375-2.633s-1.848 2.57-4.41 2.797c0 0 4.395-2.605 3.922-3.211-.098-.121-1.844-1.309-1.844-1.309s-3.199 4.445-7.199 4.672c0 0 5.66-2.398 6.535-5.129l-2.809-1.621s-3.148 4.863-7.699 5.301c0 0 5.828-2.719 7.07-5.621l-2.945-1.23s-3.164 4.691-6.949 5.023c0 0 6.414-3.816 6.254-5.258 0 0-2.766-.977-3.625-.879 0 0-2.352 3.309-4.57 3.309 0 0 4.023-3.008 3.777-3.492 0 0-3.949-.309-6.035.613 1.875-.93 3.957-1.355 6.047-1.23a6.59 6.59 0 0 0-3.156-2.082s2.203-.836 4.113 2.168c0 0 3.074.371 3.438.723 0 0-1.469-3.242-3.352-4.652 0 0 2.84.578 4.141 4.953l2.988 1.18s-1.719-4.387-3.297-5.77c0 0 2.805 1.039 4.02 6.152l2.738 1.574s-1.195-3.887-2.621-5.809c0 0 2.398 1.527 3.383 6.289l1.703 1.266-1.23-3.609c-.312-.789-.152-.941-.152-.941 1.164 1.461 1.902 3.219 2.133 5.074 0 0 3.34 2.789 3.527 2.594zm0 0" class="B E F H"/></g><mask id="BI"><g class="D"><path d="M0 0h629v500H0z" class="B C G"/></g></mask><clipPath id="BJ"><path d="M0 0h629v500H0z"/></clipPath><g id="BK" clip-path="url(#BJ)"><path d="M498.707 207.496s-10.176-21.117-23.164-10.711c0 0-2.789.934-2.66 3.867 0 0 1.082-.555 1.844 1.703.285.805.664 1.57 1.129 2.281a5.28 5.28 0 0 0 2.633 2.086s5.582 4.422 16.215 1.406c0 0 2.965.512 3.453.148l-3.391-2.625s-1.848 2.57-4.418 2.797c0 0 4.398-2.605 3.926-3.211-.098-.121-1.848-1.309-1.848-1.309s-3.195 4.445-7.199 4.68c0 0 5.664-2.402 6.535-5.133l-2.77-1.637s-3.148 4.871-7.699 5.301c0 0 5.828-2.719 7.07-5.621l-2.945-1.23s-3.168 4.688-6.949 5.023c0 0 6.422-3.816 6.262-5.262 0 0-2.773-.98-3.633-.883 0 0-2.352 3.309-4.57 3.309 0 0 4.02-3.004 3.773-3.492 0 0-3.945-.305-6.031.617a11.97 11.97 0 0 1 6.051-1.23 6.56 6.56 0 0 0-3.16-2.086s2.203-.844 4.113 2.172c0 0 3.074.363 3.438.711 0 0-1.469-3.234-3.344-4.648 0 0 2.84.578 4.137 4.953l2.984 1.18s-1.719-4.387-3.297-5.762c0 0 2.805 1.031 4.02 6.148l2.738 1.57s-1.195-3.887-2.621-5.809c0 0 2.398 1.527 3.387 6.293l1.703 1.23-1.227-3.609c-.309-.789-.156-.941-.156-.941 1.172 1.457 1.91 3.215 2.137 5.074 0 0 3.344 2.832 3.535 2.648zm0 0" class="B E F H"/></g><mask id="BL"><g class="D"><path d="M0 0h629v500H0z" class="B C G"/></g></mask><clipPath id="BM"><path d="M0 0h629v500H0z"/></clipPath><g id="BN" clip-path="url(#BM)"><path d="M138.305 480.684c0-.875-6.328-1.582-14.133-1.582s-14.137.707-14.137 1.582 6.328 1.578 14.137 1.578 14.133-.707 14.133-1.578zm0 0" class="B E F H"/></g><mask id="BO"><g class="D"><path d="M0 0h629v500H0z" class="B C G"/></g></mask><clipPath id="BP"><path d="M0 0h629v500H0z"/></clipPath><g id="BQ" clip-path="url(#BP)"><path d="M45.641 453.82c0-.875-6.328-1.582-14.137-1.582s-14.133.707-14.133 1.582 6.328 1.578 14.133 1.578 14.137-.707 14.137-1.578zm0 0" class="B E F H"/></g><mask id="BR"><g class="D"><path d="M0 0h629v500H0z" class="B C G"/></g></mask><clipPath id="BS"><path d="M0 0h629v500H0z"/></clipPath><g id="BT" clip-path="url(#BS)"><path d="M208.941 498.523c0-.871-6.328-1.578-14.137-1.578s-14.133.707-14.133 1.578 6.328 1.582 14.133 1.582 14.137-.707 14.137-1.582zm0 0" class="B E F H"/></g><mask id="BU"><g class="D"><path d="M0 0h629v500H0z" class="B C G"/></g></mask><clipPath id="BV"><path d="M0 0h629v500H0z"/></clipPath><g id="BW" clip-path="url(#BV)"><path d="M570.906 459.66c0-.871-6.328-1.578-14.133-1.578s-14.137.707-14.137 1.578 6.328 1.582 14.137 1.582 14.133-.707 14.133-1.582zm0 0" class="B E F H"/></g><mask id="BX"><g class="D"><path d="M0 0h629v500H0z" class="B C G"/></g></mask><clipPath id="BY"><path d="M0 0h629v500H0z"/></clipPath><g id="BZ" clip-path="url(#BY)"><path d="M453.281 451.992c0-.871-6.332-1.582-14.137-1.582s-14.137.711-14.137 1.582 6.328 1.582 14.137 1.582 14.137-.707 14.137-1.582zm0 0" class="B E F H"/></g><mask id="Ba"><g class="D"><path d="M0 0h629v500H0z" class="B C G"/></g></mask><clipPath id="Bb"><path d="M0 0h629v500H0z"/></clipPath><g id="Bc" clip-path="url(#Bb)"><path d="M379.766 488.105c0-1.586-7.484-2.871-16.715-2.871s-16.719 1.285-16.719 2.871 7.484 2.871 16.719 2.871 16.715-1.285 16.715-2.871zm0 0" class="B E F H"/></g><linearGradient id="Bd" gradientUnits="userSpaceOnUse" x1="336.106" y1="308.684" x2="336.106" y2="0"><stop offset="0" stop-color="rgb(50.196078%,50.196078%,50.196078%)" stop-opacity=".251"/><stop offset=".54" stop-color="rgb(50.196078%,50.196078%,50.196078%)" stop-opacity=".122"/><stop offset="1" stop-color="rgb(50.196078%,50.196078%,50.196078%)" stop-opacity=".102"/></linearGradient><mask id="Be"><g class="D"><path d="M0 0h629v500H0z" class="B C G"/></g></mask><clipPath id="Bf"><path d="M0 0h629v500H0z"/></clipPath><g id="Bg" clip-path="url(#Bf)"><path d="M370.828 193.652s8.977 7.352 11.68 7.996 4.367 6.379 4.367 6.379" class="B C E F"/></g><mask id="Bh"><g class="D"><path d="M0 0h629v500H0z" class="B C G"/></g></mask><clipPath id="Bi"><path d="M0 0h629v500H0z"/></clipPath><g id="Bj" clip-path="url(#Bi)"><path d="M334.422 67.203h20.996v32.734h-20.996zm0 0" class="B C E F"/></g><mask id="Bk"><g class="D"><path d="M0 0h629v500H0z" fill-opacity=".02" class="B C"/></g></mask><clipPath id="Bl"><path d="M0 0h629v500H0z"/></clipPath><g id="Bm" clip-path="url(#Bl)"><path d="M290.473 223.352s-7.176 7.891-4.516 9.324 19.887 28.289 19.887 28.289 56.566 6.969 67.234-3.488 10.453-29.133 10.453-29.133-8.57 1.848-9.508.844-6.066-5.836-6.066-5.836-72.566-4.402-77.484 0zm0 0" class="B C E F"/></g><mask id="Bn"><g class="D"><path d="M0 0h629v500H0z" class="B C G"/></g></mask><clipPath id="Bo"><path d="M0 0h629v500H0z"/></clipPath><g id="Bp" clip-path="url(#Bo)"><path d="M357.879 62.152c0 15.172-12.297 27.473-27.465 27.473s-27.469-12.301-27.469-27.473 12.297-27.473 27.469-27.473 27.465 12.301 27.465 27.473zm0 0" class="B C E F"/></g><mask id="Bq"><g class="D"><path d="M0 0h629v500H0z" class="B C G"/></g></mask><clipPath id="Br"><path d="M0 0h629v500H0z"/></clipPath><g id="Bs" clip-path="url(#Br)"><path d="M392.348 143.188H268.953v-.305l1.02-17.832s10.008-10.727 18.777-17.965l77.473-3.074 3.602-3.801 13.055 5.988c10.25 4.711 9.426 18.039 9.426 18.039s1.402 15.441.043 18.949zm0 0" class="B C E F"/></g><mask id="Bt"><g class="D"><path d="M0 0h629v500H0z" class="B C G"/></g></mask><clipPath id="Bu"><path d="M0 0h629v500H0z"/></clipPath><g id="Bv" clip-path="url(#Bu)"><path d="M310.633 92.559s19.465 24.809 45.395-.512 2.871 56.477 2.871 56.477l-55.953 6.645zm0 0" class="B C E F"/></g><mask id="Bw"><g class="D"><path d="M0 0h629v500H0z" class="B C G"/></g></mask><clipPath id="Bx"><path d="M0 0h629v500H0z"/></clipPath><g id="By" clip-path="url(#Bx)"><path d="M364.039 98.145l2.059 31.418 3.895 18.449s4.305 61.504 3.074 64.578.613 5.535.871 7.172-.258 5.742-.055 7.586 0 2.664-4.711 2.008-11.273-1.805-11.273-1.805-16.602 1.23-22.34-.816-16.602-2.055-16.602-2.055-16.398.414-21.723-.203-8.203 6.563-11.684 4.508 4.098-21.93 6.555-27.676-3.277-20.293-3.277-20.293l7.379-40.941 1.645-9.281v-29.176l.402-.141c1.5-.586 2.836-1.516 3.898-2.719L304 128.117l57.793 2.055V97.129" class="B C E F"/></g><mask id="Bz"><g class="D"><path d="M0 0h629v500H0z" class="B C G"/></g></mask><clipPath id="CA"><path d="M0 0h629v500H0z"/></clipPath><g id="CB" clip-path="url(#CA)"><path d="M370.688 31.34c-.352-1.285-.84-2.617-1.848-3.48a7.56 7.56 0 0 0-3.246-1.328 64.01 64.01 0 0 0-8.535-1.637c-.41-1.363-1.031-2.656-1.844-3.832-6.023-8.512-14.941-16.535-25.43-18.352-5.492-.953-11.855-.098-15.371 4.234-1.93 2.379-2.762 5.531-4.711 7.871-3.754 4.539-10.539 5.098-15.273 8.609-2.527 1.844-4.359 4.52-6.148 7.117-1.937 2.809-3.93 5.734-4.543 9.094-1.23 6.711 3.203 13.105 4.023 19.879 1.844 15.145-14.391 28.586-11.32 43.527 1.789 8.715 9.836 14.855 18.16 17.965 2.934 1.102 6.285 2.195 7.656 5.012.613 1.23.719 2.652 1.297 3.895 1.945 4.145 8.332 4.305 11.762 1.285s4.516-7.902 4.922-12.461c1.645-19.902-6.324-39.562-5.395-59.512.277-6.035 1.973-12.879 7.379-15.609 7.273-3.691 16.023 2.461 24.027 1.285a47.68 47.68 0 0 1 2.301 29.094c-1.273 5.309-3.473 10.457-3.633 15.93-.242 8.332 4.254 15.949 8.141 23.316.832 1.375 1.391 2.902 1.641 4.496a10.81 10.81 0 0 1-.879 4.703c-2.195 5.91-5.984 11.395-6.414 17.688-.125.734.039 1.488.461 2.105.434.406.992.66 1.586.711 6.641 1.137 12.387-4.746 15.625-10.656a49.95 49.95 0 0 0 6.16-21.23c.672-12.523-3.816-24.84-3.539-37.375.316-14.25 6.754-28.598 2.988-42.344zm0 0" class="B C E F"/></g><mask id="CC"><g class="D"><path d="M0 0h629v500H0z" class="B C G"/></g></mask><clipPath id="CD"><path d="M0 0h629v500H0z"/></clipPath><g id="CE" clip-path="url(#CD)"><path d="M284.828 276.656l-4.152 28.793-.066-.098c-2.055 6.461-6.766 1.535-6.766 1.535s2.051-19.68 1.422-22.141 4.051-6.684 4.051-6.684zm0 0" class="B C E F"/></g><mask id="CF"><g class="D"><path d="M0 0h629v500H0z" class="B C G"/></g></mask><clipPath id="CG"><path d="M0 0h629v500H0z"/></clipPath><g id="CH" clip-path="url(#CG)"><path d="M313.836 194.746s10.859 3.691 20.289 0" class="B C E F"/></g><mask id="CI"><g class="D"><path d="M0 0h629v500H0z" class="B C G"/></g></mask><clipPath id="CJ"><path d="M0 0h629v500H0z"/></clipPath><g id="CK" clip-path="url(#CJ)"><path d="M350.906 201.723s4.508 2.25 7.992 0" class="B C E F"/></g><mask id="CL"><g class="D"><path d="M0 0h629v500H0z" class="B C G"/></g></mask><clipPath id="CM"><path d="M0 0h629v500H0z"/></clipPath><g id="CN" clip-path="url(#CM)"><path d="M350.906 207.059s7.582 1.016 9.02-1.031" class="B C E F"/></g><mask id="CO"><g class="D"><path d="M0 0h629v500H0z" class="B C G"/></g></mask><clipPath id="CP"><path d="M0 0h629v500H0z"/></clipPath><g id="CQ" clip-path="url(#CP)"><path d="M348.445 218.531s14.242-1.848 17.777-4.305" class="B C E F"/></g><mask id="CR"><g class="D"><path d="M0 0h629v500H0z" class="B C G"/></g></mask><clipPath id="CS"><path d="M0 0h629v500H0z"/></clipPath><g id="CT" clip-path="url(#CS)"><path d="M304.996 214.227s7.992 4.508 13.938 4.305" class="B C E F"/></g><mask id="CU"><g class="D"><path d="M0 0h629v500H0z" class="B C G"/></g></mask><clipPath id="CV"><path d="M0 0h629v500H0z"/></clipPath><g id="CW" clip-path="url(#CV)"><path d="M371.02 283.488c-2.312.547-4.648.965-7.004 1.258-3.691.203-44.062-13.527-44.062-13.527l7.785-7.996.43-.148c1.23.867 2.238 1.613 2.957 2.18 3.387 2.668 6.66-.82 7.891-.82s11.883 8.813 11.883 8.813 9.84 2.258 11.48 4.305 7.379 1.645 8.398 3.078c.309.441.344 1.531.242 2.859zm0 0" class="B C E F"/></g><mask id="CX"><g class="D"><path d="M0 0h629v500H0z" class="B C G"/></g></mask><clipPath id="CY"><path d="M0 0h629v500H0z"/></clipPath><g id="CZ" clip-path="url(#CY)"><path d="M275.266 236.164c3.59-.734 7.316.25 10.078 2.66 4.918 4.102 21.469 12.34 21.469 12.34" class="B C E F"/></g><mask id="Ca"><g class="D"><path d="M0 0h629v500H0z" class="B C G"/></g></mask><clipPath id="Cb"><path d="M0 0h629v500H0z"/></clipPath><g id="Cc" clip-path="url(#Cb)"><path d="M398.25 235.902s-21.934 3.324-26.027 7.832" class="B C E F"/></g><mask id="Cd"><g class="D"><path d="M0 0h629v500H0z" class="B C G"/></g></mask><clipPath id="Ce"><path d="M0 0h629v500H0z"/></clipPath><g id="Cf" clip-path="url(#Ce)"><path d="M423.461 303.813h-.969c5.727-4.723 18.676-19.102-19.805-29.582l3.352-1.137s19.676 1.027 25 14.559-7.578 16.16-7.578 16.16zm0 0" class="B C E F"/></g><mask id="Cg"><g class="D"><path d="M0 0h629v500H0z" class="B C G"/></g></mask><clipPath id="Ch"><path d="M0 0h629v500H0z"/></clipPath><g id="Ci" clip-path="url(#Ch)" class="B C F"><path d="M350.566 61.137a47.79 47.79 0 0 0-3.527-19.766c-7.992 1.195-16.75-4.977-24.031-1.285-5.383 2.73-7.074 9.574-7.375 15.609-.074 1.594-.086 3.184-.059 4.777 0-.566 0-1.137.059-1.703.281-6.031 1.973-12.879 7.375-15.609 7.281-3.687 16.023 2.461 24.031 1.285a47.58 47.58 0 0 1 3.527 16.691zm-61.941-1.125a20.37 20.37 0 0 0-.078-4.023c-.652-5.41-3.609-10.582-4.145-15.859-.687 6.367 3.363 12.48 4.145 18.938.078.332.078.625.078.945zm0 0" class="E"/><path d="M321.023 115.203c-.383 4.563-1.457 9.441-4.918 12.465s-9.84 2.859-11.762-1.285c-.617-1.23-.707-2.66-1.305-3.891-1.363-2.816-4.723-3.914-7.656-5.016-8.332-3.117-16.367-9.223-18.156-17.961-.16-.793-.27-1.594-.324-2.398-.152 1.828-.043 3.672.324 5.473 1.789 8.715 9.84 14.844 18.156 17.965 2.934 1.102 6.293 2.195 7.656 5.012.613 1.23.719 2.648 1.305 3.891 1.938 4.148 8.324 4.309 11.762 1.289s4.508-7.906 4.918-12.469a70.41 70.41 0 0 0 .191-7.219c0 1.395-.082 2.773-.191 4.145zm47.493-45.051v2.664c.344-11.437 4.539-22.937 4.125-34.137-.32 10.355-3.891 20.945-4.125 31.473zm0 0" class="E"/><path d="M355.32 116.426a7.84 7.84 0 0 0 .141-2.219 12.25 12.25 0 0 0-1.641-4.496c-3.555-6.766-7.605-13.691-8.086-21.199 0 .32-.043.613-.047.961-.246 8.324 4.246 15.945 8.133 23.313.66 1.141 1.164 2.367 1.5 3.641zm16.731-8.899c-.461 7.453-2.578 14.707-6.203 21.23-3.246 5.91-8.984 11.797-15.629 10.656a2.62 2.62 0 0 1-1.59-.719c-.121-.141-.223-.301-.285-.48-.074.48-.137.969-.176 1.461a2.84 2.84 0 0 0 .461 2.094 2.65 2.65 0 0 0 1.59.723c6.645 1.137 12.383-4.75 15.629-10.66 3.625-6.523 5.742-13.777 6.203-21.23a52.75 52.75 0 0 0 .035-4.305l-.035 1.23zm0 0" class="E"/></g><mask id="Cj"><g class="D"><path d="M0 0h629v500H0z" class="B C G"/></g></mask><clipPath id="Ck"><path d="M0 0h629v500H0z"/></clipPath><g id="Cl" clip-path="url(#Ck)"><path d="M695.313 519.298s25.304 10.62 42-12.881" transform="matrix(.614858 0 0 .615006 -54.464145 -26.703567)" fill="none" class="O P Q R S T"/></g><mask id="Cm"><g class="D"><path d="M0 0h629v500H0z" class="B C G"/></g></mask><clipPath id="Cn"><path d="M0 0h629v500H0z"/></clipPath><g id="Co" clip-path="url(#Cn)"><path d="M700.287 537.857s20.673-13.44 47-.438" transform="matrix(.614858 0 0 .615006 -54.464145 -26.703567)" fill="none" class="O P Q R S T"/></g><mask id="Cp"><g class="D"><path d="M0 0h629v500H0z" class="B C G"/></g></mask><clipPath id="Cq"><path d="M0 0h629v500H0z"/></clipPath><g id="Cr" clip-path="url(#Cq)"><path d="M561.93 534.809s8.678-19.576 31.861-4.649" transform="matrix(.614858 0 0 .615006 -54.464145 -26.703567)" fill="none" class="O P Q R S T"/></g><mask id="Cs"><g class="D"><path d="M0 0h629v500H0z" class="B C G"/></g></mask><clipPath id="Ct"><path d="M0 0h629v500H0z"/></clipPath><g id="Cu" clip-path="url(#Ct)"><path d="M273.742 124.125l10.883-9.84s42.195-2.766 43.941 11.582c0 0 14.961-17.012 46.422-13.223l13.313 10.602-36.793 16.152-35.754 12.402-26.332-11.789zm0 0" class="B C E F"/></g><mask id="Cv"><g class="D"><path d="M0 0h629v500H0z" class="B C G"/></g></mask><clipPath id="Cw"><path d="M0 0h629v500H0z"/></clipPath><g id="Cx" clip-path="url(#Cw)"><path d="M268.926 125.973l4.816 57.605 51.031 2.566-2.254-58.328zm0 0" class="B C E F"/></g><mask id="Cy"><g class="D"><path d="M0 0h629v500H0z" class="B C G"/></g></mask><clipPath id="Cz"><path d="M0 0h629v500H0z"/></clipPath><g id="DA" clip-path="url(#Cz)"><path d="M390.637 124.742l-52.645 7.895v57.867l51.445-7.434zm0 0" class="B C E F"/></g><mask id="DB"><g class="D"><path d="M0 0h629v500H0z" class="B C N"/></g></mask><clipPath id="DC"><path d="M0 0h629v500H0z"/></clipPath><g id="DD" clip-path="url(#DC)"><path d="M378.223 137.633l-28.437 3.16.621 9.691 27.801-3.035zm0 0" class="B E F K"/></g><mask id="DE"><g class="D"><path d="M0 0h629v500H0z" class="B C G"/></g></mask><clipPath id="DF"><path d="M0 0h629v500H0z"/></clipPath><g id="DG" clip-path="url(#DF)"><path d="M337.992 132.633a17.7 17.7 0 0 1-15.437-3.852l2.219 57.355s5.227 5.66 13.219 4.367zm0 0" class="B C E F"/></g><mask id="DH"><g class="D"><path d="M0 0h629v500H0z" class="B C G"/></g></mask><clipPath id="DI"><path d="M0 0h629v500H0z"/></clipPath><g id="DJ" clip-path="url(#DI)"><path d="M337.992 131.402a17.7 17.7 0 0 1-15.437-3.852l2.219 57.355s5.227 5.66 13.219 4.367zm0 0" class="B C E F"/></g><mask id="DK"><g class="D"><path d="M0 0h629v500H0z" class="B C G"/></g></mask><clipPath id="DL"><path d="M0 0h629v500H0z"/></clipPath><g id="DM" clip-path="url(#DL)"><path d="M339.223 124.938s21.418-6.547 27-5.625" class="B C E F"/></g><mask id="DN"><g class="D"><path d="M0 0h629v500H0z" class="B C G"/></g></mask><clipPath id="DO"><path d="M0 0h629v500H0z"/></clipPath><g id="DP" clip-path="url(#DO)"><path d="M315.27 122.078s-20.758-4.918-24.227-3.523" class="B C E F"/></g><mask id="DQ"><g class="D"><path d="M0 0h629v500H0z" class="B C G"/></g></mask><clipPath id="DR"><path d="M0 0h629v500H0z"/></clipPath><g id="DS" clip-path="url(#DR)"><path d="M352.727 125.758s14.32-5.254 19.496-2.758" class="B C E F"/></g><mask id="DT"><g class="D"><path d="M0 0h629v500H0z" class="B C G"/></g></mask><clipPath id="DU"><path d="M0 0h629v500H0z"/></clipPath><g id="DV" clip-path="url(#DU)"><path d="M345.512 257.508c2.223-1.664 4.582-3.133 7.059-4.383 3.691-1.777 10.453-6.391 10.453-6.391" class="B C E F"/></g><mask id="DW"><g class="D"><path d="M0 0h629v500H0z" class="B C G"/></g></mask><clipPath id="DX"><path d="M0 0h629v500H0z"/></clipPath><g id="DY" clip-path="url(#DX)"><path d="M291.043 194.746s-8.984 7.352-11.684 7.996-4.363 6.379-4.363 6.379" class="B C E F"/></g><mask id="DZ"><g class="D"><path d="M0 0h629v500H0z" class="B C G"/></g></mask><clipPath id="Da"><path d="M0 0h629v500H0z"/></clipPath><g id="Db" clip-path="url(#Da)"><path d="M380.332 197.738s5.871 3.773 5.848 8.289" class="B C E F"/></g><mask id="Dc"><g class="D"><path d="M0 0h629v500H0z" class="B C G"/></g></mask><clipPath id="Dd"><path d="M0 0h629v500H0z"/></clipPath><g id="De" clip-path="url(#Dd)"><path d="M360.867 46.898c-1.484 2.504-4.562 3.691-7.465 3.691s-5.711-.941-8.484-1.809c-7.215-2.258-15.09-3.977-22.223-1.469-3.18 1.113-6.105 3.074-9.437 3.566-4.855.762-12.68-3.469-13.527-8.848-.953 6.215 8.117 11.543 13.527 10.691 3.332-.52 6.258-2.457 9.438-3.566 7.133-2.508 15.008-.785 22.223 1.473 2.773.867 5.574 1.844 8.484 1.805s5.98-1.18 7.465-3.687c.766-1.367 1.07-2.945.859-4.496a6.57 6.57 0 0 1-.859 2.648zm0 0" class="B C E F"/></g><mask id="Df"><g class="D"><path d="M0 0h629v500H0z" class="B C G"/></g></mask><clipPath id="Dg"><path d="M0 0h629v500H0z"/></clipPath><g id="Dh" clip-path="url(#Dg)"><path d="M583.758 380.203c.32.461.57.965.746 1.496 6.383 7.5 9.789 14.508 3.645 14.68-5.719.164-12.574 10.391-14.215 12.969.051.207.117.414.191.617 0 0 8.043-13.371 14.582-13.562s2.238-8.16-4.949-16.199zm0 0" class="B C E F"/></g><mask id="Di"><g class="D"><path d="M0 0h629v500H0z" class="B C G"/></g></mask><clipPath id="Dj"><path d="M0 0h629v500H0z"/></clipPath><g id="Dk" clip-path="url(#Dj)"><path d="M564.488 380.203c-.316.461-.566.965-.742 1.496-6.383 7.5-9.789 14.508-3.648 14.68 5.715.164 12.574 10.391 14.219 12.969a5.68 5.68 0 0 1-.199.617s-8.035-13.371-14.582-13.562-2.215-8.16 4.953-16.199zm0 0" class="B C E F"/></g><mask id="Dl"><g class="D"><path d="M0 0h629v500H0z" class="B C G"/></g></mask><clipPath id="Dm"><path d="M0 0h629v500H0z"/></clipPath><g id="Dn" clip-path="url(#Dm)"><path d="M612.246 440.57c0-3.227-17.07-5.848-38.121-5.848s-38.121 2.621-38.121 5.848 17.066 5.852 38.121 5.852 38.121-2.621 38.121-5.852zm0 0" class="B E F H"/></g><path id="Do" d="M36.375 374.574l154.035-28.086 204.102 32.523-126.773 45.648zm0 0"/></defs><use xlink:href="#D" mask="url(#B)"/><g class="H"><path d="M267.738 424.66l-210.453-1.027-20.91-49.059 73.941-5.367-12.887-53.789 146.25-18.961-140.047-48.695 12.371-2.941 225.191 36.746-12.398 83.945-17.727 46.129zm0 0"/><path d="M60.516 403.086s12.91-2.066 20.656 7.063c0 0-5.68 4.477-17.902-1.723zm-1.356-.203s-8.238 10.145-4.18 21.434c0 0 6.715-2.687 7.445-16.375zm-7.402-16.672s5.164-9.477 25.824 3.789c0 0-2.754 6.371-11.879 5.855s-11.535-4.648-13.945-9.645zm-1.332-.684s-10.719-1.227-11.758 23.309c0 0 6.793 1.41 11.621-6.352s2.848-12.117.137-16.957zm-6.242-19.574s6.027-16.703 27.891-4.82c0 0-4.992 15.324-25.652 10.504zm-6.715-24.969s11.363-16.875 31.508-1.23c0 0-7.059 15.844-29.785 7.234zm-2.41-23.765s13.258-15.504 33.203 0c0 0-12.566 13.605-33.203 3.961zm-2.067-23.078s13.43-16.187 32.539-.863c0 0-15.148 14.293-32.539 4.648zm1.207-20.493s14.141-20.836 32.02-6.719c0 0-15.148 17.91-32.02 10.68zm3.27-23.937s14.98-20.664 32.367-4.82c0 0-17.734 17.906-32.367 8.609zm4.992-21.395s17.734-19.422 33.203-11.687c0 0-18.477 20.629-33.977 16.84zm6.199-20.285s20.461-23.789 32.367-15.844c0 0-15.078 18.453-33.82 20.297zm8.945-23.523s17.91-19.422 30.996-14.602c0 0-15.324 20.148-33.398 20.664zm8.098-22.004s19.801-18.598 28.406-15.328c0 0-14.289 20.664-29.266 19.461zm7.922-20.32s17.043-22.219 26.344-20.5c0 0-10.336 19.813-26.344 22.758zm8.594-27.399s15.063-17.031 23.203-16.992c0 0-11.891 22.754-23.824 22.547zm0 0"/><path d="M87.309 96.543l14.555-35.473s.727 32.066-16.402 42.055zm5.91-39.121s2.41-29.625.859-32.035c0 0 10.406 24.633-.957 45.125zM43.617 365.559s-15.086-9.352-24.859 13.531c0 0 13.43 8.918 26.637-7.695zm-6.633-25.528S18.477 331.586 9.5 355.48c0 0 14.297 9.84 29.168-9.41zm-2.785-21.39s-13.258-15.504-33.203 0c0 0 12.566 13.605 33.203 3.961zm-1.66-24.5S19.109 277.953 0 293.277c0 0 15.148 14.293 32.539 4.648zm1.66-19.903s-9.422-23.34-29.895-13.305c0 0 11.066 20.695 29.059 17.18zm4.457-24.644s-9.363-23.746-30.129-12.738c0 0 12.715 21.766 29.207 16.402zm0 0"/><path d="M44.461 228.434s-3.691-26.035-20.906-28.367c0 0 3.652 27.457 18.586 33.059zm4.637-20.352s-1.441-31.367-15.676-32.461c0 0 .48 23.809 14.07 36.902zm9.984-24.453s-4.242-26.082-17.832-29.27c0 0 1.688 25.258 16.484 35.672zm8.234-20.91s-.145-27.172-8.445-31.164c0 0-5.145 24.602 6.039 34.633zm6.942-20.844s-1.164-27.977-9.758-31.918c0 0-2.941 22.141 8.473 33.75zm9.16-24.859s-.051-22.754-6.187-28.094c0 0-6.098 24.93 2.984 32.672zm3.172-21.59l-5.969-37.875s-8.109 31.035 6.254 44.711zm1.164-37.645S72.43 32.32 72.742 29.488c0 0 1.633 26.688 20.906 39.977zm1.793-7.523s-14.461-36.16-21.004-39.09c0 0 20.66 10.504 22.211 38.059zm0 0"/></g><g fill="rgb(26.666667%,25.098039%,32.54902%)"><path d="M81.523 120.555l-.988-.301c12.203-39.812 15.246-65.191 8.578-71.559l.707-.75c7.074 6.715 4.203 31.82-8.297 72.609zm0 0"/><path d="M47.914 213.766l-1.461-.523a290.64 290.64 0 0 1 4.156-10.996c12.738-31.762 23.586-61.305 30.539-83.988l1.273-.613c-6.965 22.723-17.621 53.402-30.375 85.203-1.457 3.578-2.848 7.262-4.133 10.918zm0 0"/><path d="M78.707 432.879c-.195-.215-19.977-22.496-33.766-60.535-8.082-22.27-12.578-45.68-13.324-69.359-.949-29.602 5.262-62.652 15.898-92.676l1.156 1.352c-23.879 67.387-14.395 125.129-1.809 159.902 13.645 37.691 33.203 59.73 33.395 59.949zm0 0"/></g><path d="M387.809 385.57s-13.937 17.02-2.871 42.746l-111.289 48.277-10.68 2.238-4.918-21.527 3.289-27.164v-14.844zm0 0" class="L"/><g class="H"><use xlink:href="#Do"/><use xlink:href="#Do"/><path d="M36.375 374.57s-14.406 27.301 2.195 52.516l228.418 49.508s-14.176-21.746.734-51.934zm0 0"/></g><use xlink:href="#G" mask="url(#E)"/><use xlink:href="#J" mask="url(#H)"/><path d="M266.988 476.594l127.523-54.43s7.133 1.539 2.52 6.766-127.582 52.891-127.582 52.891L38.57 427.086zm0 0" class="H"/><use xlink:href="#M" mask="url(#K)"/><use xlink:href="#P" mask="url(#N)"/><use xlink:href="#S" mask="url(#Q)"/><use xlink:href="#V" mask="url(#T)"/><use xlink:href="#Y" mask="url(#W)"/><use xlink:href="#b" mask="url(#Z)"/><use xlink:href="#e" mask="url(#c)"/><use xlink:href="#h" mask="url(#f)"/><use xlink:href="#k" mask="url(#i)"/><path d="M394.512 379.012s5.594 2.254 2.313 5.742-129.102 39.906-129.102 39.906zm0 0" class="H"/><path d="M448.859 326.422s-13.934 17.012-2.867 42.742l-111.289 48.277-10.68 2.25-4.918-21.523 3.34-27.16v-14.863zm0 0" class="L"/><g class="U"><path d="M97.43 315.418l154.027-28.082 204.109 32.523-126.77 45.652zm0 0"/><path d="M97.406 315.418s-14.414 27.301 2.188 52.516l228.422 49.508s-14.172-21.766.754-51.937zm0 0"/></g><use xlink:href="#n" mask="url(#l)"/><use xlink:href="#q" mask="url(#o)"/><path d="M328.039 417.441l127.527-54.43s7.125 1.539 2.516 6.766S330.5 422.668 330.5 422.668L99.621 367.934zm0 0" class="U"/><use xlink:href="#t" mask="url(#r)"/><use xlink:href="#w" mask="url(#u)"/><use xlink:href="#z" mask="url(#x)"/><use xlink:href="#AC" mask="url(#AA)"/><use xlink:href="#AF" mask="url(#AD)"/><use xlink:href="#AI" mask="url(#AG)"/><use xlink:href="#AL" mask="url(#AJ)"/><use xlink:href="#AO" mask="url(#AM)"/><use xlink:href="#AR" mask="url(#AP)"/><path d="M455.566 319.859s5.59 2.258 2.313 5.738-129.082 39.906-129.082 39.906zm0 0" class="U"/><path d="M454.637 258.75s-13.937 30.551-2.871 56.273l-111.289 34.75-10.652 2.258-4.922-21.527 3.289-27.164v-14.863zm0 0" class="L"/><g class="H"><path d="M103.23 247.754l154.031-28.086 204.109 32.52-126.777 45.652zm0 0"/><path d="M103.23 247.75s-14.434 27.301 2.168 52.516l228.422 49.508s-14.18-21.766.75-51.934zm0 0"/></g><use xlink:href="#AU" mask="url(#AS)"/><use xlink:href="#AX" mask="url(#AV)"/><path d="M333.844 349.773l127.52-40.898s7.133 1.535 2.523 6.766S336.305 355 336.305 355l-230.883-54.734zm0 0" class="H"/><use xlink:href="#Aa" mask="url(#AY)"/><use xlink:href="#Ad" mask="url(#Ab)"/><use xlink:href="#Ag" mask="url(#Ae)"/><use xlink:href="#Aj" mask="url(#Ah)"/><use xlink:href="#Am" mask="url(#Ak)"/><use xlink:href="#Ap" mask="url(#An)"/><use xlink:href="#As" mask="url(#Aq)"/><use xlink:href="#Av" mask="url(#At)"/><use xlink:href="#Ay" mask="url(#Aw)"/><path d="M461.363 252.188s5.598 2.258 2.313 5.746-129.082 39.906-129.082 39.906zM190.863 65.5S167.5 64.09 170.23 80.484c0 0-.547 2.898 2.078 4.215 0 0 .043-1.23 2.398-.805a10.42 10.42 0 0 0 2.543.121c1.148-.078 2.238-.527 3.105-1.277 0 0 6.574-2.719 9.133-13.469 0 0 1.891-2.344 1.844-2.949l-3.961 1.688s1.348 2.848.289 5.215c0 0-.129-5.109-.891-4.992-.152 0-2.047.988-2.047.988s2.316 4.965.566 8.566c0 0 .664-6.113-1.293-8.211l-2.777 1.625s2.711 5.121.871 9.305c0 0 .473-6.414-1.457-8.91l-2.52 1.969s2.551 5.047.996 8.516c0 0-.203-7.465-1.539-8.031 0 0-2.207 1.941-2.539 2.742 0 0 1.746 3.691.66 5.602 0 0-.66-4.973-1.23-5 0 0-2.195 3.297-2.422 5.535a11.94 11.94 0 0 1 1.887-5.867 6.63 6.63 0 0 0-3.359 1.742s.34-2.332 3.906-2.535c0 0 1.813-2.5 2.301-2.648 0 0-3.551-.301-5.695.652 0 0 1.895-2.195 6.34-1.23l2.457-2.031s-4.66-.613-6.641.07c0 0 2.281-1.945 7.313-.531l2.711-1.617s-3.977-.855-6.344-.547c0 0 2.496-1.348 7.137.109l1.93-.867s-2.906-.57-3.762-.664-.898-.324-.898-.324c1.848-.305 3.742-.09 5.473.613 0 0 4.152-1.492 4.07-1.75zm0 0" class="H"/><use xlink:href="#BB" mask="url(#Az)"/><use xlink:href="#BE" mask="url(#BC)"/><use xlink:href="#BH" mask="url(#BF)"/><use xlink:href="#BK" mask="url(#BI)"/><use xlink:href="#BN" mask="url(#BL)"/><use xlink:href="#BQ" mask="url(#BO)"/><use xlink:href="#BT" mask="url(#BR)"/><use xlink:href="#BW" mask="url(#BU)"/><use xlink:href="#BZ" mask="url(#BX)"/><use xlink:href="#Bc" mask="url(#Ba)"/><path d="M370.508 459.238s-23.277 12.027-11.254 26.199c0 0 1.133 3.074 4.402 2.859 0 0-.648-1.195 1.848-2.148.887-.344 1.73-.789 2.512-1.332a5.93 5.93 0 0 0 2.254-3.008s4.758-6.371 1.066-18.16c0 0 .48-3.336.063-3.875l-2.828 3.879s2.922 1.961 3.258 4.848c0 0-3.074-4.84-3.687-4.305-.137.109-1.402 2.121-1.402 2.121s5.066 3.438 5.441 7.902c0 0-2.852-6.254-5.934-7.145l-1.766 3.148s5.535 3.367 6.148 8.438c0 0-3.215-6.426-6.496-7.727l-1.297 3.328s5.336 3.395 5.828 7.613c0 0-4.465-7.055-6.07-6.832 0 0-1.008 3.125-.871 4.09 0 0 3.766 2.523 3.836 5 0 0-3.48-4.398-4.016-4.109 0 0-.223 4.422.848 6.723 0 0-1.844-3.285-1.543-6.723-1.078.953-1.855 2.203-2.23 3.594 0 0-1.004-2.43 2.297-4.668 0 0 .316-3.437.695-3.863 0 0-3.57 1.746-5.09 3.887 0 0 .559-3.191 5.406-4.777l1.227-3.371s-4.844 2.055-6.336 3.863c0 0 1.074-3.168 6.719-4.687l1.672-3.074s-4.305 1.449-6.406 3.074c0 0 1.629-2.723 6.922-3.98l1.359-1.937s-3.121 1.113-3.996 1.516-1.047.203-1.047.203c1.598-1.352 3.535-2.234 5.602-2.547 0 0 3.082-3.809 2.867-4.016zm0 0" class="H"/><path d="M439.598 232.035c-4.02-10.93-26.156-11.957-35.758-9.168-6.824 1.984-21.215 4.223-28.898 5.348l-.5-.473c.996-.293 1.023-1.02.898-2.098a32.89 32.89 0 0 1 .063-4.254c4.711 1.465 8.902-2 8.902-2 5.535-2.461 4.047-12.988 5.102-15.867.797-2.152 1.648-14.832 2.031-21.156h.078l.043-2.121.082-1.453s.539-15.461 1.598-18.59c.984-2.879 1.785-17.379 1.906-19.68v-.301l-.078-1.344c.055-.977.078-2.066.07-3.207 0-5.262-.547-11.883-.613-12.953v-.559c.043-2.246-.238-13.488-9.801-17.738l-11.859-5.277c-1.059-9.133-3.477-18.215-3.266-27.418 0-1.383.121-2.766.258-4.145 0 .402-.043.809-.051 1.23v2.684c.363-11.508 4.711-23.078 4.305-34.336-.035 1.098-.117 2.207-.219 3.313a35.74 35.74 0 0 0-1.184-11.309c-.367-1.297-.867-2.641-1.93-3.508a7.97 7.97 0 0 0-3.367-1.332 67.45 67.45 0 0 0-8.848-1.648 13.71 13.71 0 0 0-1.992-3.867C350.332 10.246 341.098 2.203 330.18.355c-5.48-.922-11.781-.152-15.508 3.766-.391.344-.754.715-1.094 1.105-2.004 2.395-2.867 5.535-4.918 7.922-.137.16-.289.309-.437.461-4.023 3.598-10.285 4.348-14.758 7.578a17.8 17.8 0 0 0-2.207 1.926 37.49 37.49 0 0 0-4.82 5.859c-2.012 2.828-4.074 5.773-4.715 9.152-1.285 6.766 3.32 13.18 4.176 19.988 1.906 15.23-14.949 28.75-11.758 43.781a20.05 20.05 0 0 0 5.422 9.734c-6.57 5.953-12.168 11.73-12.168 11.73v.344h-1.039l.105 1.23h-.105l.574 6.672-.574 9.715v.918h.039c.191 3.563.945 16.367 1.844 19.066 1.059 3.129 1.594 18.59 1.594 18.59s1.168 21.852 2.238 24.742-.449 13.391 5.102 15.867a11.69 11.69 0 0 0 5.578 2.313c-.285 2.301-.105 3.969.809 4.488.395.23.84.359 1.293.371-.375.559-.711 1.145-1.004 1.754a26.09 26.09 0 0 1-6.441-1.52c-5.965-2.461-25.758-7.996-31.508-4.102s-19.582 7.422-13.191 23.09 9.363 16.066 9.363 16.066a22.69 22.69 0 0 1 5.109 5.137c1.918 2.883 19.793 9.48 24.262 9.48a43.92 43.92 0 0 1 5.688.285s-4.852 4.254-4.207 6.727-1.473 22.262-1.473 22.262 4.918 4.957 7.02-1.543l.074.098c.395.535 2.52 2.953 6.523-.098 1.637-1.242 3.379-2.344 5.203-3.297l19.379-2.742c2.02-.125 4.047-.141 6.07-.043 3.074.254 6.094-1.566 7.992-2.977 4.016 1.527 8.527 3.191 10.672 3.801 4.355 1.23 24.363 6.602 29.043 4.922.973-.387 1.836-1.004 2.52-1.797l4.465.141-2.09.418 9.602.141-.234.137 6.941-.062c10.16.094 21.57.125 23.07-.215 2.352-.523 14.555-.152 18.152 0h1s13.41-2.676 7.879-16.285c-4.258-10.453-17.332-13.492-23.137-14.328 1.633-.328 3.043-.578 3.977-.727 4.051-.613 11.922-4.305 12.563-5.566s7.234-4.918 8.938-7.004 6.57-16.863 2.527-27.793zm-111.074 30.586l-.656.215-.441.148-.852.836-2.156-1.43 4.105.23zm58.605 17.328zm0 0" fill="url(#Bd)"/><path d="M367.727 197.773s9.41 24.602 14.758 22.141 3.898-12.914 4.918-15.781 2.152-24.602 2.152-24.602.516-15.375 1.539-18.484c.945-2.859 1.715-17.281 1.844-19.551v-.305l-1.016-17.832-5.742-1.434-13.316 4.918-2.871 16.402zm0 0" class="I"/><use xlink:href="#Bg" mask="url(#Be)"/><path d="M294.16 198.852s-9.406 24.598-14.758 22.137-3.898-12.914-4.918-15.777-2.152-24.602-2.152-24.602-.516-15.375-1.535-18.488c-.949-2.859-1.715-17.281-1.844-19.551v-.301l1.02-17.836 5.742-1.434 13.316 4.922 2.566 14.648.305 1.754zm0 0" class="I"/><path d="M334.422 67.203h20.996v32.734h-20.996zm0 0" class="V"/><use xlink:href="#Bj" mask="url(#Bh)"/><path d="M290.473 223.352s-7.176 7.891-4.516 9.324 19.887 28.289 19.887 28.289 56.566 6.969 67.234-3.488 10.453-29.133 10.453-29.133-8.57 1.848-9.508.844-6.066-5.836-6.066-5.836-72.566-4.402-77.484 0zm0 0" class="M"/><use xlink:href="#Bm" mask="url(#Bk)"/><path d="M392.305 123.617l-18.445 14.758-7.625.555-34.391 2.523-47.73-3.488-14.141-13.531s10.008-10.727 18.777-17.965c3.457-2.859 6.719-5.172 9.102-6.082l.402-.141c1.5-.582 2.836-1.516 3.898-2.719 6.926-7.141 13.324-24.762 13.324-24.762s30.543-15.777 26.852 4.922 13.73 15.586 13.73 15.586l8.012 3.656 18.84 8.641c10.242 4.719 9.395 18.047 9.395 18.047zm0 0" class="I"/><use xlink:href="#Bp" mask="url(#Bn)"/><use xlink:href="#Bs" mask="url(#Bq)"/><path d="M392.348 142.57H268.953v-.301l1.02-17.836s10.008-10.727 18.777-17.965l77.473-3.074 3.602-3.801 13.055 5.992c10.25 4.711 9.426 18.035 9.426 18.035s1.402 15.445.043 18.949zm0 0" class="J"/><use xlink:href="#Bv" mask="url(#Bt)"/><path d="M310.633 93.789s19.465 24.809 45.395-.512 2.871 56.477 2.871 56.477l-55.953 6.641zm0 0" class="J"/><use xlink:href="#By" mask="url(#Bw)"/><path d="M364.039 96.914l2.059 31.418 3.895 18.453s4.305 61.5 3.074 64.574.613 5.535.871 7.172-.258 5.742-.055 7.59 0 2.66-4.711 2.004-11.273-1.805-11.273-1.805-16.602 1.23-22.34-.816-16.602-2.055-16.602-2.055-16.398.414-21.723-.203-8.203 6.563-11.684 4.508 4.098-21.93 6.555-27.676-3.277-20.293-3.277-20.293l7.379-40.941 1.645-9.281v-29.176l.402-.141c1.5-.582 2.836-1.516 3.898-2.719L304 126.887l57.793 2.055V95.898" class="J"/><use xlink:href="#CB" mask="url(#Bz)"/><path d="M371.301 30.727c-.352-1.285-.836-2.621-1.844-3.48a7.53 7.53 0 0 0-3.246-1.328 64.01 64.01 0 0 0-8.535-1.637 13.67 13.67 0 0 0-1.844-3.832c-6.027-8.512-14.941-16.539-25.434-18.352-5.488-.953-11.852-.098-15.371 4.23-1.93 2.379-2.758 5.535-4.707 7.871-3.758 4.539-10.539 5.102-15.273 8.613-2.527 1.844-4.359 4.52-6.148 7.113-1.937 2.813-3.93 5.738-4.547 9.098-1.227 6.707 3.207 13.105 4.023 19.875 1.844 15.148-14.387 28.586-11.32 43.531 1.789 8.715 9.84 14.852 18.164 17.965 2.934 1.102 6.281 2.195 7.652 5.012.617 1.23.723 2.648 1.301 3.895 1.941 4.145 8.328 4.305 11.762 1.285s4.512-7.906 4.918-12.461c1.648-19.902-6.32-39.562-5.391-59.516.273-6.031 1.973-12.879 7.375-15.609 7.273-3.687 16.023 2.461 24.031 1.285 3.789 9.223 4.59 19.398 2.297 29.098-1.27 5.309-3.473 10.453-3.633 15.93-.238 8.332 4.254 15.945 8.141 23.313a12.38 12.38 0 0 1 1.641 4.496c.063 1.613-.238 3.223-.879 4.707-2.195 5.91-5.98 11.395-6.41 17.688a2.84 2.84 0 0 0 .461 2.102 2.66 2.66 0 0 0 1.586.715c6.641 1.137 12.383-4.75 15.621-10.66 3.613-6.527 5.719-13.781 6.164-21.23.668-12.52-3.82-24.84-3.543-37.371.32-14.25 6.758-28.598 2.988-42.344zm0 0" class="V"/><path d="M357.719 303.031l24.391.781-3.5-18.094-18.684 1.777zm0 0" fill="rgb(76.470588%,78.039216%,85.098039%)"/><path d="M433.297 260.148c-1.641 2.047-7.992 5.738-8.609 6.969s-8.195 4.918-12.094 5.535-16.187 3.281-18.445 4.715c-1.617 1.035-14.598 4.305-23.125 6.121a65.42 65.42 0 0 1-7.004 1.258c-3.687.203-44.059-13.527-44.059-13.527l7.781-7.996.434-.148 18.016-5.816c6.355-1.848 13.734-9.43 13.734-9.43l12.297-4.102c1.438-.41-3.687-14.348-3.687-14.348s23.566-3.273 32.789-6.047 30.539-1.746 34.434 9.121-.793 25.648-2.461 27.695zm0 0" class="M"/><path d="M325.898 294.789s-4.707 4.922-9.426 4.516-21.207 1.23-21.207 1.23c-2.988 1.191-5.785 2.816-8.305 4.816-3.855 3.039-5.902.613-6.285.098l-.066-.098c-2.055 6.461-6.766 1.535-6.766 1.535s2.051-19.68 1.422-22.141 4.051-6.684 4.051-6.684l5.535-1.406 14.02-3.594 20.086 6.969zm0 0" class="J"/><use xlink:href="#CE" mask="url(#CC)"/><use xlink:href="#CH" mask="url(#CF)"/><use xlink:href="#CK" mask="url(#CI)"/><use xlink:href="#CN" mask="url(#CL)"/><use xlink:href="#CQ" mask="url(#CO)"/><use xlink:href="#CT" mask="url(#CR)"/><use xlink:href="#CW" mask="url(#CU)"/><path d="M295.266 230.215s-9.945.574-15.684-1.844-24.797-7.996-30.332-4.078-18.855 7.379-12.707 22.965 9.02 15.988 9.02 15.988a22.27 22.27 0 0 1 4.918 5.105c1.844 2.871 19.063 9.43 23.363 9.43s11.887 0 22.543 7.379 20.289 8.203 20.289 8.203 13.527 5.535 17.738 6.766 23.457 6.555 27.973 4.922 7.375-11.895 7.375-11.895 2.051-9.227 1.023-10.66-6.766-1.027-8.398-3.074-11.48-4.305-11.48-4.305-10.633-8.82-11.859-8.82-4.504 3.48-7.891.82c-6.75-5-13.84-9.523-21.219-13.531-7.785-4.102-14.672-23.371-14.672-23.371zm0 0" class="M"/><use xlink:href="#CZ" mask="url(#CX)"/><use xlink:href="#Cc" mask="url(#Ca)"/><path d="M423.461 303.813h-.969c-3.465-.121-15.215-.492-17.48 0-2.66.617-37.918 0-37.918 0l6.895-1.434s-2.559-8.965-.934-9.711c0 0-9.223-6.074-2.27-10.176s14.449-2.375 14.449-2.375l20.805-7.055s19.676 1.027 25 14.559-7.578 16.191-7.578 16.191zm0 0" class="J"/><use xlink:href="#Cf" mask="url(#Cd)"/><path d="M388.363 286.797c0 .594-.48 1.074-1.078 1.074a1.07 1.07 0 0 1-1.074-1.074c0-.594.48-1.078 1.074-1.078a1.08 1.08 0 0 1 1.078 1.078zm-6.254 1.777c0 .594-.48 1.074-1.074 1.074s-1.078-.48-1.078-1.074a1.08 1.08 0 0 1 1.078-1.078c.594 0 1.074.484 1.074 1.078zm0 0" class="M"/><use xlink:href="#Ci" mask="url(#Cg)"/><use xlink:href="#Cl" mask="url(#Cj)"/><use xlink:href="#Co" mask="url(#Cm)"/><use xlink:href="#Cr" mask="url(#Cp)"/><use xlink:href="#Cu" mask="url(#Cs)"/><path d="M273.742 124.742l10.883-9.84s42.195-2.77 43.941 11.578c0 0 14.961-17.008 46.422-13.223l13.313 10.605-36.793 16.148-35.754 12.406-26.332-11.789zm0 0" class="L"/><use xlink:href="#Cx" mask="url(#Cv)"/><path d="M268.926 124.742l4.816 57.605 51.031 2.566-2.254-58.328zm0 0" class="H"/><use xlink:href="#DA" mask="url(#Cy)"/><path d="M390.637 123.512l-52.645 7.898v57.863l51.445-7.434zm0 0" class="H"/><use xlink:href="#DD" mask="url(#DB)"/><path d="M276.508 213.199l2.895 7.789s4.305 3.691 9.016 1.848 8.816-2.762 10.863-4.559 4.918-10.816 4.918-10.816 2.875-9.84 5.738-12.301 10.453-36.352 0-33.039-18.445 34.066-18.445 34.066-1.844 2.25-4.508 2.461-7.992-.414-9.02 1.844-4.531 8.199-1.457 12.707zm0 0" class="I"/><use xlink:href="#DG" mask="url(#DE)"/><path d="M337.992 131.402a17.7 17.7 0 0 1-15.437-3.852l2.219 57.355s5.227 5.66 13.219 4.367zm0 0" class="H"/><use xlink:href="#DJ" mask="url(#DH)"/><use xlink:href="#DM" mask="url(#DK)"/><use xlink:href="#DP" mask="url(#DN)"/><use xlink:href="#DS" mask="url(#DQ)"/><use xlink:href="#DV" mask="url(#DT)"/><use xlink:href="#DY" mask="url(#DW)"/><path d="M385.355 212.102l-2.863 7.813s-4.305 3.691-9.02 1.844-8.812-2.762-10.867-4.555-4.918-10.82-4.918-10.82-2.863-9.84-5.738-12.301-10.449-36.352 0-33.035 18.449 34.063 18.449 34.063 1.844 2.254 4.504 2.461 7.996-.41 9.02 1.844 4.508 8.199 1.434 12.688zm0 0" class="I"/><use xlink:href="#Db" mask="url(#DZ)"/><path d="M357.977 60.805c0 15.172-12.297 27.473-27.465 27.473s-27.465-12.301-27.465-27.473 12.297-27.473 27.465-27.473 27.465 12.301 27.465 27.473zm0 0" class="I"/><path d="M313.266 53.434c3.332-.523 6.25-2.461 9.438-3.574 7.125-2.504 15.008-.789 22.219 1.469 2.77.867 5.578 1.844 8.48 1.844s5.98-1.184 7.465-3.687c1.363-2.301 1.102-5.289-.051-7.707s-3.074-4.359-5.016-6.191c-6.395-6.043-14.328-11.687-23.102-11.07-3.527.25-6.902 1.512-10.152 2.906-4.086 1.762-8.066 3.77-11.914 6.004-2.957 1.715-8.437 4.008-10.141 7.145-3.871 7.066 6.746 13.809 12.773 12.863zm0 0" class="V"/><use xlink:href="#De" mask="url(#Dc)"/><path d="M583.758 380.203s3.648 4.766-1.684 11.969-9.723 13.277-7.949 17.766c0 0 8.043-13.371 14.582-13.559s2.238-8.137-4.949-16.176zm0 0" class="H"/><use xlink:href="#Dh" mask="url(#Df)"/><g class="W"><path d="M590.523 386.277c0 1.68-.191 3.039-.418 3.039s-.426-1.359-.426-3.039.234-.883.469-.883.375-.793.375.883zm0 0"/><path d="M592.852 388.285c-1.469.797-2.754 1.285-2.863 1.082s.988-1.023 2.457-1.844.895-.223 1.004 0 .879-.047-.598.762zm0 0"/></g><path d="M564.488 380.203s-3.645 4.766 1.684 11.969 9.723 13.277 7.945 17.766c0 0-8.035-13.371-14.582-13.559s-2.215-8.137 4.953-16.176zm0 0" class="H"/><use xlink:href="#Dk" mask="url(#Di)"/><g class="W"><path d="M557.715 386.277c0 1.68.184 3.039.418 3.039s.422-1.359.422-3.039-.238-.883-.465-.883-.375-.793-.375.883zm0 0"/><path d="M555.391 388.285c1.469.797 2.754 1.285 2.863 1.082s-.988-1.023-2.457-1.844-.895-.223-1.004 0-.879-.047.598.762zm0 0"/></g><use xlink:href="#Dn" mask="url(#Dl)"/><path d="M593.742 403.512l-.184 1.488-.258 2.102-.105.883-.367 2.98-.254 2.098-2.918 23.926c-.258 2.133-3.746 3.801-7.957 3.801h-15.156c-4.211 0-7.691-1.668-7.957-3.801l-4.09-33.477c-.141-1.23 1.742-2.227 4.129-2.227h31c2.379 0 4.266 1.016 4.117 2.227zm0 0" fill="rgb(39.607843%,38.039216%,49.019608%)"/><path d="M593.559 405l-.25 2.102h-38.367l-.258-2.102zm-.364 2.984l-.25 2.102h-37.641l-.262-2.102zm-.359 2.981l-.262 2.105h-36.91l-.25-2.105zm0 0" fill="rgb(61.568627%,61.176471%,70.980392%)"/></svg>