<svg xmlns="http://www.w3.org/2000/svg" xmlns:xlink="http://www.w3.org/1999/xlink" width="993.333" height="666.667" viewBox="0 0 745 500" xmlns:v="https://vecta.io/nano"><style><![CDATA[.B{fill:rgb(0%,74.901961%,65.098039%)}.C{fill:rgb(0%,0%,0%)}.D{stroke:none}.E{fill:rgb(18.431373%,18.039216%,25.490196%)}.F{fill:rgb(81.568627%,80.392157%,88.235294%)}.G{fill:rgb(24.705882%,23.921569%,33.72549%)}.H{fill:rgb(62.745098%,38.039216%,41.568627%)}.I{fill-opacity:.102}.J{fill-rule:nonzero}]]></style><defs><filter id="A" x="0%" y="0%" width="100%" height="100%"><feColorMatrix in="SourceGraphic" values="0 0 0 0 1 0 0 0 0 1 0 0 0 0 1 0 0 0 1 0"/></filter><mask id="B"><g filter="url(#A)"><path d="M0 0h745v500H0z" class="C D I"/></g></mask><clipPath id="C"><path d="M0 0h745v500H0z"/></clipPath><g id="D" clip-path="url(#C)"><path d="M217.23 313.832c-.516 1.105.57.375-.023 1.516l-5.547 1.785-2.48 1.117-4.547-.82 3.168-10.707.594-20.418-2.18-12.488 12.082-8.328s12.961 18.383-1.066 48.344zm0 0" fill-opacity="1" class="C D J"/></g><mask id="E"><g filter="url(#A)"><path d="M0 0h745v500H0z" class="C D I"/></g></mask><clipPath id="F"><path d="M0 0h745v500H0z"/></clipPath><g id="G" clip-path="url(#F)"><path d="M283.629 438.949l-16.523-14.77-64.551-105.461 15.742.098s62.742 82.961 65.332 120.133zm0 0" fill-opacity="1" class="C D J"/></g></defs><g class="B"><path d="M627.527 242.668c.195 64.645-25.281 126.715-70.82 172.547a237.15 237.15 0 0 1-7.625 7.34c-3.129 2.887-6.336 5.688-9.625 8.402l-1.891 1.543a237 237 0 0 1-41.98 27.254l-2.66 1.332-4.266 2.043c-52.863 24.625-112.984 28.711-168.684 11.457-97.523-30.301-168.465-122.668-168.465-231.918C151.512 108.77 258.07.23 389.52.23S627.527 108.77 627.527 242.668zm0 0"/><path d="M382.199 190.211l8.711-47.684.984.18-8.711 47.684zm18.207-47.645l.977-.215 10.285 47.367-.977.211zm-.551 54.684a6.15 6.15 0 0 1 3.738 1.602l.781.676a7.84 7.84 0 0 0 2.945 1.93c2.441.668 4.852-1.266 6.887-3.246l.699.719c-2.238 2.176-4.918 4.293-7.848 3.492-1.266-.445-2.41-1.18-3.344-2.145l-.758-.656c-.836-.695-2.449-1.773-3.883-1.215a4.87 4.87 0 0 0-1.555 1.203 9.47 9.47 0 0 1-1.082.973c-1.609 1.145-3.75 1.207-5.422.16a8.94 8.94 0 0 1-.852-.637 3.52 3.52 0 0 0-1.605-.914c-.848-.117-1.621.488-2.437 1.129-.773.754-1.762 1.246-2.828 1.406-.035.004-.074.004-.109.004-1.992.035-3.254-1.961-4.035-3.477l.887-.457c1.063 2.059 2.086 3 3.203 2.934a4.43 4.43 0 0 0 2.266-1.195c.945-.742 1.926-1.512 3.195-1.336.789.176 1.516.566 2.094 1.129.242.203.496.395.762.574a3.92 3.92 0 0 0 4.293-.129 8.87 8.87 0 0 0 .965-.871 5.63 5.63 0 0 1 1.898-1.426 3.3 3.3 0 0 1 1.145-.227zm310.708-24.277c-6.336 23.438-28.027 37.953-28.027 37.953s-11.426-23.484-5.094-46.922 28.027-37.953 28.027-37.953 11.426 23.484 5.094 46.922zm0 0"/><path d="M652.945 172.973c6.332 23.438 28.027 37.953 28.027 37.953s11.426-23.484 5.09-46.922-28.027-37.953-28.027-37.953-11.422 23.484-5.09 46.922zm0 0"/></g><path d="M662.25 167.938c17.379 16.934 19.504 42.973 19.504 42.973s-26.055-1.426-43.434-18.363-19.5-42.973-19.5-42.973 26.051 1.426 43.43 18.363zm39.004 0c-17.379 16.934-19.5 42.973-19.5 42.973s26.055-1.426 43.434-18.363 19.5-42.973 19.5-42.973-26.055 1.426-43.434 18.363zm0 0" class="G"/><g class="B"><path d="M91.742 446.801c-6.332 23.438-28.027 37.953-28.027 37.953s-11.422-23.484-5.09-46.922 28.027-37.957 28.027-37.957 11.422 23.488 5.09 46.926zm0 0"/><path d="M34.125 446.801c6.336 23.438 28.027 37.953 28.027 37.953s11.426-23.484 5.094-46.922-28.027-37.957-28.027-37.957-11.426 23.488-5.094 46.926zm0 0"/></g><path d="M43.434 441.762c17.379 16.938 19.5 42.973 19.5 42.973s-26.055-1.422-43.434-18.359S0 423.402 0 423.402s26.055 1.426 43.434 18.359zm39.004 0c-17.379 16.938-19.504 42.973-19.504 42.973s26.055-1.422 43.434-18.359 19.504-42.973 19.504-42.973-26.055 1.426-43.434 18.359zm0 0" class="G"/><g class="E"><path d="M521.027 215.727a14.54 14.54 0 0 1-14.531 14.547c-8.027 0-14.535-6.512-14.535-14.547s6.508-14.551 14.535-14.551 14.531 6.516 14.531 14.551zm0 0"/><path d="M490.926 209.488c0-7.43 5.594-13.664 12.977-14.461-5.539-.605-10.937 2.012-13.895 6.734a14.57 14.57 0 0 0 0 15.453 14.53 14.53 0 0 0 13.895 6.738c-7.383-.797-12.977-7.031-12.977-14.465zm0 0"/></g><path d="M491.961 215.727s-2.254 10.391 11.848 14.547zm0 0" class="B"/><path d="M561.297 265.707c0 26.977-21.844 48.844-48.789 48.844s-48.793-21.867-48.793-48.844 21.848-48.844 48.793-48.844 48.789 21.867 48.789 48.844zm0 0" class="E"/><path d="M539.457 430.957l-1.891 1.543a237 237 0 0 1-41.98 27.254l-2.66 1.332-4.266 2.043-25.012-8.344 1.746-36.719zm0 0" class="H"/><path d="M492.926 461.086l-4.266 2.043c-9.77 4.57-19.848 8.457-30.156 11.625-.055-.152-.082-.309-.09-.469l5.234-25.621.289.121zm0 0" class="E"/><g class="H"><path d="M532.637 285.184c0 17.863-14.465 32.344-32.309 32.344s-32.309-14.48-32.309-32.344 14.465-32.348 32.309-32.348 32.309 14.484 32.309 32.348zm0 0"/><path d="M526.523 286.93s5.242 26.227 14.848 32.348l-53.27 62.945-20.082-19.234 14.844-26.227s16.59-9.617 11.352-22.73zm63.215 86.863a242.55 242.55 0 0 1-33.031 41.422c-.539-11.723-1.703-21.391-3.984-24.25l-27.949-8.746s6.113-57.699 20.961-60.316c0 0 2.152.438 5.5 1.453 10.789 3.25 33.957 12.418 37.289 31.762a107.11 107.11 0 0 1 1.215 18.676zm0 0"/><path d="M482.863 336.762s-26.199-.875-42.789 20.109-56.762 36.715-56.762 36.715l-100.422 39.34s-18.336-32.344-29.691-20.98 20.961 40.215 35.805 36.719 104.789-30.598 104.789-30.598l71.605-32.348zm0 0"/></g><path d="M552.723 390.965l-3.641 31.59c-3.129 2.887-6.336 5.688-9.625 8.402l-1.891 1.543c-25.215-7.738-64.723-6.875-72.543-6.609l-1.375.043-.867-18.359c-8.379-2.789-11.133-8.895-11.207-15.613-.129-12.176 8.582-26.352 8.582-26.352 1.566-1.566 13.254-23.754 15.672-28.352l.438-.832 10.48-2.617-.09.234c-.937 2.625-9.082 26.371 4.941 27.195 13.797.816 43.809-37.973 47.941-43.414l.477-.625 11.355 6.117c-.047.016-.09.023-.137.039-6.934 1.93-13.359 18.652-13.359 18.652-18.109 31.953 14.039 48.547 14.832 48.949zm0 0" class="F"/><g class="E"><path d="M502.082 247.215c-17.199 0-31.141 8.145-31.141 18.188 0 4.492 2.801 8.602 7.43 11.773l5.992-4.348-1.629 6.813a37.63 37.63 0 0 0 2.086.898l8.957-10.461v12.852a52.33 52.33 0 0 0 8.305.66c17.199 0 31.145-8.145 31.145-18.187s-13.945-18.188-31.145-18.188zm78.328-8.762c0 8.039-6.508 14.551-14.535 14.551s-14.531-6.512-14.531-14.551a14.54 14.54 0 0 1 14.531-14.547c8.023 0 14.535 6.512 14.535 14.547zm0 0"/><path d="M550.305 232.219c0-7.43 5.598-13.668 12.977-14.461-.516-.059-1.039-.086-1.559-.086a14.53 14.53 0 0 0-12.855 7.723 14.57 14.57 0 0 0 .805 14.988 14.53 14.53 0 0 0 13.609 6.301c-7.379-.797-12.977-7.031-12.977-14.465zm0 0"/></g><path d="M551.344 238.453s-2.258 10.395 11.848 14.551zm0 0" class="B"/><path d="M536.469 282.559c0-3.137-1.129-5.68-2.523-5.68s-2.52 2.543-2.52 5.68 1.129 5.684 2.52 5.684 2.523-2.543 2.523-5.684zm0 0" class="H"/><path d="M255.523 304.543l-38.418 9.316-5.359 4.859-2.566-.469-4.547-.82 3.168-10.707.594-20.418-2.18-12.488 12.082-8.328s23.563-1.387 37.227 39.055zm0 0" class="F"/><use xlink:href="#D" mask="url(#B)"/><path d="M300.672 275.203s-50.297 23.395-70.695 26.961-18.613 23.988-18.613 23.988l114.258-17.844s-3.961-18.434-24.949-33.105zm0 0" class="F"/><path d="M203.641 271.238s8.715 21.211-.988 47.578l11.285 5.156 4.359-5.156.098-.496-11.98-1.09s9.902-26.562 1.781-45c0 0-1.781-3.965-4.555-.992zm0 0" class="B"/><path d="M369.777 428.445c-44.555-9.914-86.039 10.605-86.039 10.605l-.109-.102-16.523-14.77-64.551-105.461 15.742.098c43.762-26.168 105.344-22.598 105.344-22.598 26.535 30.133 46.137 132.227 46.137 132.227zm0 0" class="G"/><use xlink:href="#G" mask="url(#E)"/><path d="M310.539 333.621c-2.633-8.586-15.695-12.184-29.184-8.043s-22.289 14.457-19.66 23.039 15.695 12.184 29.184 8.043 22.289-14.457 19.66-23.039zm0 0" class="F"/><path d="M733.512 211.16a11.34 11.34 0 0 1-11.336 11.344 11.34 11.34 0 0 1-11.332-11.344c0-6.266 5.074-11.348 11.332-11.348s11.336 5.082 11.336 11.348zM32.332 484.23c0 6.266-5.074 11.348-11.332 11.348S9.668 490.496 9.668 484.23 14.742 472.883 21 472.883s11.332 5.082 11.332 11.348zm0 0" class="B"/></svg>